<svg xmlns="http://www.w3.org/2000/svg" viewBox="0 0 24 24" id="building"><path fill="#fff" d="M22.5 5.2l-3-3.7h-8L7 6.5h1.5v8H4l-3.5 4h2v5h10v-2h10z"></path><path fill="#cce7ff" d="M8.5 6.5h8V9h-8zM16.5 21.5h6V5.2l-3-3.7-3 3.7zM12.5 23.5v-6.3l-2-2.7-2 2.7v6.3zM2.5 18.5h6v2h-6z"></path><path fill="none" stroke="#1078ff" stroke-linecap="round" stroke-linejoin="round" stroke-miterlimit="10" d="M.5 18.5h7l3-4H4zM13.5 18.5l-3-4"></path><path fill="none" stroke="#1078ff" stroke-linecap="round" stroke-linejoin="round" stroke-miterlimit="10" d="M2.5 18.5v5h6v-6.3M12.5 17.2v6.3h-4M7 6.5h8.5l4-5h-8zM19.5 1.5l4 5M16.5 21.5V5.2M8.5 6.5v6M15.5 21.5h7V5.2M18.5 7.5v2M20.5 7.5v2M18.5 12.5v2M10.5 21.5v2M20.5 12.5v2M18.5 17.5v2M20.5 17.5v2"></path><path fill="none" d="M0 0h24v24H0z"></path></svg>