<svg xmlns="http://www.w3.org/2000/svg" enable-background="new 0 0 68 68" viewBox="0 0 68 68" id="building"><rect width="58.796" height="43.355" x="4.602" y="17.483" fill="#FF7E7E"></rect><path fill="#EF3D3D" d="M63.4017,17.4865v43.35h-58.8v-4.58c45.78-0.33,48.6-31.61,48.64-38.77H63.4017z"></path><path fill="#FFF" d="M10.0472,2.9261l-5.9824,9.3967h59.871l-5.9824-9.3967c-0.3672-0.5767-1.0034-0.9259-1.6871-0.9259
			H11.7343C11.0506,2.0002,10.4143,2.3495,10.0472,2.9261z"></path><path fill="#DEE1E6" d="M63.9317,12.3265h-59.87l1.9-2.98c38.67,0.52,44.73-4.59,45.22-7.35h5.08c0.69,0,1.32,0.35,1.69,0.93
			L63.9317,12.3265z"></path><path fill="#C7CBD1" d="M2.0002,13.3544v3.0968c0,0.5701,0.4622,1.0323,1.0323,1.0323H64.968c0.5701,0,1.0323-0.4622,1.0323-1.0323
		v-3.0968c0-0.5701-0.4622-1.0323-1.0323-1.0323H3.0325C2.4624,12.3221,2.0002,12.7843,2.0002,13.3544z"></path><path fill="#DEE1E6" d="M2.0002,61.8705v3.0968c0,0.5701,0.4622,1.0323,1.0323,1.0323H64.968c0.5701,0,1.0323-0.4622,1.0323-1.0323
		v-3.0968c0-0.5701-0.4622-1.0323-1.0323-1.0323H3.0325C2.4624,60.8382,2.0002,61.3004,2.0002,61.8705z"></path><rect width="8.258" height="8.258" x="10.863" y="22.097" fill="#4DABF4"></rect><rect width="8.258" height="8.258" x="10.863" y="35.032" fill="#4DABF4"></rect><rect width="8.258" height="8.258" x="10.863" y="47.966" fill="#4DABF4"></rect><polygon fill="#1D7BD5" points="10.863 30.355 19.121 30.355 19.121 22.097"></polygon><rect width="8.258" height="8.258" x="29.871" y="22.097" fill="#4DABF4"></rect><polygon fill="#1D7BD5" points="29.871 30.355 38.129 30.355 38.129 22.097"></polygon><polygon fill="#1D7BD5" points="10.863 43.29 19.121 43.29 19.121 35.032"></polygon><polygon fill="#1D7BD5" points="10.863 56.224 19.121 56.224 19.121 47.966"></polygon><rect width="8.258" height="8.258" x="49.874" y="22.097" fill="#4DABF4"></rect><rect width="8.258" height="8.258" x="49.874" y="35.032" fill="#4DABF4"></rect><rect width="8.258" height="8.258" x="49.874" y="47.966" fill="#4DABF4"></rect><polygon fill="#1D7BD5" points="49.874 30.355 58.132 30.355 58.132 22.097"></polygon><polygon fill="#1D7BD5" points="49.874 43.29 58.132 43.29 58.132 35.032"></polygon><polygon fill="#1D7BD5" points="49.874 56.224 58.132 56.224 58.132 47.966"></polygon><path fill="#4DABF4" d="M25.6891,46.1422v14.696h16.6222v-14.696C42.3113,35.0858,25.6891,35.0762,25.6891,46.1422z"></path><path fill="#1D7BD5" d="M42.3117,46.1465v14.69h-16.62v-7.55c7.13-2.22,12.42-5.53,16.34-9.27
			C42.2117,44.6965,42.3117,45.4065,42.3117,46.1465z"></path><path fill="#231F20" d="M64.9678,18.4834c1.1206,0,2.0322-0.9116,2.0322-2.0322v-3.0967c0-1.1206-0.9116-2.0322-2.0322-2.0322
				h-0.4835l-5.6874-8.9331c-0.5537-0.8696-1.5-1.3887-2.5308-1.3887H11.7344c-1.0308,0-1.9771,0.519-2.5308,1.3887l-5.6874,8.9331
				H3.0327C1.9121,11.3223,1,12.2339,1,13.3545v3.0967c0,1.1206,0.9121,2.0322,2.0327,2.0322h0.5698v41.355H3.0327
				C1.9121,59.8384,1,60.75,1,61.8706v3.0967c0,1.1206,0.9121,2.0322,2.0327,2.0322h61.9351c1.1206,0,2.0322-0.9116,2.0322-2.0322
				v-3.0967c0-1.1206-0.9116-2.0322-2.0322-2.0322h-0.5698v-41.355H64.9678z M10.8911,3.4634
				c0.1841-0.29,0.4995-0.4629,0.8433-0.4629h44.5317c0.3438,0,0.6592,0.1729,0.8433,0.4629l5.0036,7.8589H5.8875L10.8911,3.4634z
				 M3,16.4512l0.0327-3.1289L65,13.3545v3.0967c0,0.0181-0.0142,0.0322-0.0322,0.0322L3,16.4512z M41.3115,46.1421v13.6963H35
				V38.9077C38.5591,39.3978,41.3115,42.4509,41.3115,46.1421z M33,59.8384h-6.311V46.1421c0-3.6912,2.7524-6.7442,6.311-7.2344
				V59.8384z M65,61.8706v3.0967c0,0.0181-0.0142,0.0322-0.0322,0.0322L3,64.9673l0.0327-3.1289L65,61.8706z M62.3979,59.8384
				H43.3115V46.1421c0-5.1343-4.1772-9.311-9.3115-9.311s-9.311,4.1768-9.311,9.311v13.6963H5.6025v-41.355h56.7954V59.8384z"></path><path fill="#231F20" d="M10.8633 31.3555h8.2578c.5522 0 1-.4478 1-1v-8.2583c0-.5522-.4478-1-1-1h-8.2578c-.5522 0-1 .4478-1 1v8.2583C9.8633 30.9077 10.311 31.3555 10.8633 31.3555zM11.8633 23.0972h6.2578v6.2583h-6.2578V23.0972zM10.8633 44.29h8.2578c.5522 0 1-.4478 1-1v-8.2583c0-.5522-.4478-1-1-1h-8.2578c-.5522 0-1 .4478-1 1V43.29C9.8633 43.8423 10.311 44.29 10.8633 44.29zM11.8633 36.0317h6.2578V42.29h-6.2578V36.0317zM10.8633 57.2241h8.2578c.5522 0 1-.4478 1-1v-8.2578c0-.5522-.4478-1-1-1h-8.2578c-.5522 0-1 .4478-1 1v8.2578C9.8633 56.7764 10.311 57.2241 10.8633 57.2241zM11.8633 48.9663h6.2578v6.2578h-6.2578V48.9663zM49.8745 31.3555h8.2578c.5522 0 1-.4478 1-1v-8.2583c0-.5522-.4478-1-1-1h-8.2578c-.5522 0-1 .4478-1 1v8.2583C48.8745 30.9077 49.3223 31.3555 49.8745 31.3555zM50.8745 23.0972h6.2578v6.2583h-6.2578V23.0972zM29.8711 31.3555h8.2583c.5522 0 1-.4478 1-1v-8.2583c0-.5522-.4478-1-1-1h-8.2583c-.5522 0-1 .4478-1 1v8.2583C28.8711 30.9077 29.3188 31.3555 29.8711 31.3555zM30.8711 23.0972h6.2583v6.2583h-6.2583V23.0972zM49.8745 44.29h8.2578c.5522 0 1-.4478 1-1v-8.2583c0-.5522-.4478-1-1-1h-8.2578c-.5522 0-1 .4478-1 1V43.29C48.8745 43.8423 49.3223 44.29 49.8745 44.29zM50.8745 36.0317h6.2578V42.29h-6.2578V36.0317zM49.8745 57.2241h8.2578c.5522 0 1-.4478 1-1v-8.2578c0-.5522-.4478-1-1-1h-8.2578c-.5522 0-1 .4478-1 1v8.2578C48.8745 56.7764 49.3223 57.2241 49.8745 57.2241zM50.8745 48.9663h6.2578v6.2578h-6.2578V48.9663z"></path></svg>