<svg xmlns="http://www.w3.org/2000/svg" xmlns:xlink="http://www.w3.org/1999/xlink" version="1.1" width="256" height="256" viewBox="0 0 256 256" xml:space="preserve">

<defs>
</defs>
<g style="stroke: none; stroke-width: 0; stroke-dasharray: none; stroke-linecap: butt; stroke-linejoin: miter; stroke-miterlimit: 10; fill: none; fill-rule: nonzero; opacity: 1;" transform="translate(1.4065934065934016 1.4065934065934016) scale(2.81 2.81)" >
	<rect x="75.54" y="66.46" rx="0" ry="0" width="2.57" height="11.79" style="stroke: none; stroke-width: 1; stroke-dasharray: none; stroke-linecap: butt; stroke-linejoin: miter; stroke-miterlimit: 10; fill: rgb(204,102,0); fill-rule: nonzero; opacity: 1;" transform=" matrix(1 0 0 1 0 0) "/>
	<rect x="11.89" y="66.46" rx="0" ry="0" width="2.57" height="11.79" style="stroke: none; stroke-width: 1; stroke-dasharray: none; stroke-linecap: butt; stroke-linejoin: miter; stroke-miterlimit: 10; fill: rgb(204,102,0); fill-rule: nonzero; opacity: 1;" transform=" matrix(1 0 0 1 0 0) "/>
	<path d="M 13.176 69.028 L 13.176 69.028 c -2.091 0 -3.801 -1.711 -3.801 -3.801 V 49.267 c 0 -2.091 1.711 -3.801 3.801 -3.801 h 0 c 2.091 0 3.801 1.711 3.801 3.801 v 15.959 C 16.977 67.317 15.267 69.028 13.176 69.028 z" style="stroke: none; stroke-width: 1; stroke-dasharray: none; stroke-linecap: butt; stroke-linejoin: miter; stroke-miterlimit: 10; fill: rgb(131,206,0); fill-rule: nonzero; opacity: 1;" transform=" matrix(1 0 0 1 0 0) " stroke-linecap="round" />
	<path d="M 76.824 69.028 L 76.824 69.028 c -2.091 0 -3.801 -1.711 -3.801 -3.801 V 49.267 c 0 -2.091 1.711 -3.801 3.801 -3.801 h 0 c 2.091 0 3.801 1.711 3.801 3.801 v 15.959 C 80.625 67.317 78.915 69.028 76.824 69.028 z" style="stroke: none; stroke-width: 1; stroke-dasharray: none; stroke-linecap: butt; stroke-linejoin: miter; stroke-miterlimit: 10; fill: rgb(131,206,0); fill-rule: nonzero; opacity: 1;" transform=" matrix(1 0 0 1 0 0) " stroke-linecap="round" />
	<rect x="24.28" y="19.16" rx="0" ry="0" width="41.43" height="59.24" style="stroke: none; stroke-width: 1; stroke-dasharray: none; stroke-linecap: butt; stroke-linejoin: miter; stroke-miterlimit: 10; fill: rgb(242,242,242); fill-rule: nonzero; opacity: 1;" transform=" matrix(1 0 0 1 0 0) "/>
	<path d="M 67.642 21.344 H 22.358 v -5.643 c 0 -2.813 2.281 -5.094 5.094 -5.094 h 35.097 c 2.813 0 5.094 2.281 5.094 5.094 V 21.344 z" style="stroke: none; stroke-width: 1; stroke-dasharray: none; stroke-linecap: butt; stroke-linejoin: miter; stroke-miterlimit: 10; fill: rgb(255,112,88); fill-rule: nonzero; opacity: 1;" transform=" matrix(1 0 0 1 0 0) " stroke-linecap="round" />
	<path d="M 53.144 77.108 H 36.856 V 65.39 c 0 -4.498 3.646 -8.144 8.144 -8.144 h 0 c 4.498 0 8.144 3.646 8.144 8.144 V 77.108 z" style="stroke: none; stroke-width: 1; stroke-dasharray: none; stroke-linecap: butt; stroke-linejoin: miter; stroke-miterlimit: 10; fill: rgb(117,141,158); fill-rule: nonzero; opacity: 1;" transform=" matrix(1 0 0 1 0 0) " stroke-linecap="round" />
	<path d="M 53.144 65.39 H 36.905 v -0.024 c 0 -4.484 3.635 -8.12 8.12 -8.12 h 0 c 4.484 0 8.12 3.635 8.12 8.12 V 65.39 z" style="stroke: none; stroke-width: 1; stroke-dasharray: none; stroke-linecap: butt; stroke-linejoin: miter; stroke-miterlimit: 10; fill: rgb(255,112,88); fill-rule: nonzero; opacity: 1;" transform=" matrix(1 0 0 1 0 0) " stroke-linecap="round" />
	<path d="M 46.101 59.079 c -0.234 0 -0.423 0.189 -0.423 0.423 v 1.526 H 44.37 v -1.526 c 0 -0.234 -0.189 -0.423 -0.423 -0.423 c -0.234 0 -0.423 0.189 -0.423 0.423 v 3.898 c 0 0.234 0.189 0.423 0.423 0.423 c 0.234 0 0.423 -0.189 0.423 -0.423 v -1.526 h 1.307 v 1.526 c 0 0.234 0.189 0.423 0.423 0.423 c 0.234 0 0.423 -0.189 0.423 -0.423 v -3.898 C 46.524 59.269 46.335 59.079 46.101 59.079 z" style="stroke: none; stroke-width: 1; stroke-dasharray: none; stroke-linecap: butt; stroke-linejoin: miter; stroke-miterlimit: 10; fill: rgb(255,255,255); fill-rule: nonzero; opacity: 1;" transform=" matrix(1 0 0 1 0 0) " stroke-linecap="round" />
	<path d="M 48.725 50.828 h -7.451 v -5.36 c 0 -2.057 1.668 -3.725 3.725 -3.725 h 0 c 2.057 0 3.725 1.668 3.725 3.725 V 50.828 z" style="stroke: none; stroke-width: 1; stroke-dasharray: none; stroke-linecap: butt; stroke-linejoin: miter; stroke-miterlimit: 10; fill: rgb(117,141,158); fill-rule: nonzero; opacity: 1;" transform=" matrix(1 0 0 1 0 0) " stroke-linecap="round" />
	<path d="M 60.297 50.828 h -7.451 v -5.36 c 0 -2.057 1.668 -3.725 3.725 -3.725 h 0 c 2.057 0 3.725 1.668 3.725 3.725 V 50.828 z" style="stroke: none; stroke-width: 1; stroke-dasharray: none; stroke-linecap: butt; stroke-linejoin: miter; stroke-miterlimit: 10; fill: rgb(117,141,158); fill-rule: nonzero; opacity: 1;" transform=" matrix(1 0 0 1 0 0) " stroke-linecap="round" />
	<path d="M 37.154 50.828 h -7.451 v -5.36 c 0 -2.057 1.668 -3.725 3.725 -3.725 h 0 c 2.057 0 3.725 1.668 3.725 3.725 V 50.828 z" style="stroke: none; stroke-width: 1; stroke-dasharray: none; stroke-linecap: butt; stroke-linejoin: miter; stroke-miterlimit: 10; fill: rgb(117,141,158); fill-rule: nonzero; opacity: 1;" transform=" matrix(1 0 0 1 0 0) " stroke-linecap="round" />
	<path d="M 48.725 37.971 h -7.451 v -5.36 c 0 -2.057 1.668 -3.725 3.725 -3.725 h 0 c 2.057 0 3.725 1.668 3.725 3.725 V 37.971 z" style="stroke: none; stroke-width: 1; stroke-dasharray: none; stroke-linecap: butt; stroke-linejoin: miter; stroke-miterlimit: 10; fill: rgb(117,141,158); fill-rule: nonzero; opacity: 1;" transform=" matrix(1 0 0 1 0 0) " stroke-linecap="round" />
	<path d="M 60.297 37.971 h -7.451 v -5.36 c 0 -2.057 1.668 -3.725 3.725 -3.725 h 0 c 2.057 0 3.725 1.668 3.725 3.725 V 37.971 z" style="stroke: none; stroke-width: 1; stroke-dasharray: none; stroke-linecap: butt; stroke-linejoin: miter; stroke-miterlimit: 10; fill: rgb(117,141,158); fill-rule: nonzero; opacity: 1;" transform=" matrix(1 0 0 1 0 0) " stroke-linecap="round" />
	<path d="M 37.154 37.971 h -7.451 v -5.36 c 0 -2.057 1.668 -3.725 3.725 -3.725 h 0 c 2.057 0 3.725 1.668 3.725 3.725 V 37.971 z" style="stroke: none; stroke-width: 1; stroke-dasharray: none; stroke-linecap: butt; stroke-linejoin: miter; stroke-miterlimit: 10; fill: rgb(117,141,158); fill-rule: nonzero; opacity: 1;" transform=" matrix(1 0 0 1 0 0) " stroke-linecap="round" />
	<rect x="0" y="77.39" rx="0" ry="0" width="90" height="2" style="stroke: none; stroke-width: 1; stroke-dasharray: none; stroke-linecap: butt; stroke-linejoin: miter; stroke-miterlimit: 10; fill: rgb(242,242,242); fill-rule: nonzero; opacity: 1;" transform=" matrix(1 0 0 1 0 0) "/>
</g>
</svg>