<?xml version="1.0" encoding="utf-8"?><svg version="1.1" id="Layer_1" xmlns="http://www.w3.org/2000/svg" xmlns:xlink="http://www.w3.org/1999/xlink" x="0px" y="0px" viewBox="0 0 122.88 121.51" style="enable-background:new 0 0 122.88 121.51" xml:space="preserve"><style type="text/css"><![CDATA[
	.st0{fill-rule:evenodd;clip-rule:evenodd;}
]]></style><g><path class="st0" d="M9.85,100.1h15.78c0.17,0,0.31,0.14,0.31,0.31v4.52c0,0.17-0.14,0.31-0.31,0.31H9.85 c-0.17,0-0.31-0.14-0.31-0.31v-4.52C9.54,100.24,9.68,100.1,9.85,100.1L9.85,100.1L9.85,100.1z M96.99,68.59h15.78 c0.17,0,0.31,0.14,0.31,0.31v4.51c0,0.17-0.14,0.31-0.31,0.31H96.99c-0.17,0-0.31-0.14-0.31-0.31V68.9 C96.69,68.73,96.82,68.59,96.99,68.59L96.99,68.59z M96.99,100.34h15.78c0.17,0,0.31,0.14,0.31,0.31v4.52 c0,0.17-0.14,0.31-0.31,0.31H96.99c-0.17,0-0.31-0.14-0.31-0.31v-4.52C96.69,100.48,96.82,100.34,96.99,100.34L96.99,100.34z M96.99,89.05h15.78c0.17,0,0.31,0.14,0.31,0.31v4.52c0,0.17-0.14,0.31-0.31,0.31H96.99c-0.17,0-0.31-0.14-0.31-0.31v-4.52 C96.69,89.19,96.82,89.05,96.99,89.05L96.99,89.05z M96.99,78.82h15.78c0.17,0,0.31,0.14,0.31,0.31v4.52 c0,0.17-0.14,0.31-0.31,0.31H96.99c-0.17,0-0.31-0.14-0.31-0.31v-4.52C96.69,78.96,96.82,78.82,96.99,78.82L96.99,78.82z M86.65,118.63V21.05L36,2.88v115.75l0,0l-2.88,0V51.68L2.88,43.42v75.21L86.65,118.63L86.65,118.63L86.65,118.63z M1.44,121.51 c-0.8,0-1.44-0.65-1.44-1.44V42.65c0-0.58,0.24-1.11,0.62-1.5c0.38-0.38,0.91-0.62,1.5-0.62l31,8.26V2.53 c0-1.41,1.1-2.53,2.53-2.53L87,18.17c1.39,0,2.54,1.14,2.54,2.53v28.09l31.22-8.26c0.58,0,1.11,0.24,1.49,0.62l0.01,0.01 c0.38,0.38,0.62,0.91,0.62,1.49v77.42c0,0.8-0.65,1.44-1.44,1.44H1.44L1.44,121.51L1.44,121.51z M71.67,99.35h8.49 c0.13,0,0.24,0.11,0.24,0.24v8.49c0,0.13-0.11,0.24-0.24,0.24h-8.49c-0.13,0-0.24-0.11-0.24-0.24v-8.49 C71.43,99.46,71.54,99.35,71.67,99.35L71.67,99.35L71.67,99.35L71.67,99.35z M57.08,99.35h8.49c0.13,0,0.24,0.11,0.24,0.24v8.49 c0,0.13-0.11,0.24-0.24,0.24h-8.49c-0.13,0-0.24-0.11-0.24-0.24v-8.49C56.84,99.46,56.95,99.35,57.08,99.35L57.08,99.35 L57.08,99.35L57.08,99.35z M42.49,99.35h8.49c0.13,0,0.24,0.11,0.24,0.24v8.49c0,0.13-0.11,0.24-0.24,0.24h-8.49 c-0.13,0-0.24-0.11-0.24-0.24v-8.49C42.25,99.46,42.36,99.35,42.49,99.35L42.49,99.35L42.49,99.35L42.49,99.35z M9.71,89.17h15.9 c0.13,0,0.24,0.08,0.24,0.17v4.7c0,0.09-0.11,0.18-0.24,0.18H9.71c-0.13,0-0.24-0.08-0.24-0.18v-4.7 C9.47,89.25,9.58,89.17,9.71,89.17L9.71,89.17L9.71,89.17L9.71,89.17z M42.46,13.65L80.2,26.64c0.63,0,1.15,0.52,1.15,1.15v29.52 c0,0.63-0.52,1.15-1.15,1.15H42.46c-0.63,0-1.15-0.52-1.15-1.15V14.8C41.3,14.16,41.83,13.65,42.46,13.65L42.46,13.65L42.46,13.65z M9.71,78.9h15.9c0.13,0,0.24,0.08,0.24,0.18v4.7c0,0.09-0.11,0.18-0.24,0.18H9.71c-0.13,0-0.24-0.08-0.24-0.18v-4.7 C9.47,78.97,9.58,78.9,9.71,78.9L9.71,78.9L9.71,78.9L9.71,78.9z M9.71,68.62h15.9c0.13,0,0.24,0.08,0.24,0.18v4.7 c0,0.09-0.11,0.18-0.24,0.18H9.71c-0.13,0-0.24-0.08-0.24-0.18v-4.7C9.47,68.7,9.58,68.62,9.71,68.62L9.71,68.62L9.71,68.62 L9.71,68.62z M71.67,84.46h8.49c0.13,0,0.24,0.11,0.24,0.24v8.49c0,0.13-0.11,0.24-0.24,0.24h-8.49c-0.13,0-0.24-0.11-0.24-0.24 V84.7C71.43,84.57,71.54,84.46,71.67,84.46L71.67,84.46L71.67,84.46L71.67,84.46z M57.08,84.46h8.49c0.13,0,0.24,0.11,0.24,0.24 v8.49c0,0.13-0.11,0.24-0.24,0.24h-8.49c-0.13,0-0.24-0.11-0.24-0.24V84.7C56.84,84.57,56.95,84.46,57.08,84.46L57.08,84.46 L57.08,84.46L57.08,84.46z M42.49,84.46h8.49c0.13,0,0.24,0.11,0.24,0.24v8.49c0,0.13-0.11,0.24-0.24,0.24h-8.49 c-0.13,0-0.24-0.11-0.24-0.24V84.7C42.25,84.57,42.36,84.46,42.49,84.46L42.49,84.46L42.49,84.46L42.49,84.46z M71.67,67.98h8.49 c0.13,0,0.24,0.11,0.24,0.24v8.49c0,0.13-0.11,0.24-0.24,0.24h-8.49c-0.13,0-0.24-0.11-0.24-0.24v-8.49 C71.43,68.09,71.54,67.98,71.67,67.98L71.67,67.98L71.67,67.98L71.67,67.98z M57.08,67.98h8.49c0.13,0,0.24,0.11,0.24,0.24v8.49 c0,0.13-0.11,0.24-0.24,0.24h-8.49c-0.13,0-0.24-0.11-0.24-0.24v-8.49C56.84,68.09,56.95,67.98,57.08,67.98L57.08,67.98 L57.08,67.98L57.08,67.98z M42.49,67.98h8.49c0.13,0,0.24,0.11,0.24,0.24v8.49c0,0.13-0.11,0.24-0.24,0.24h-8.49 c-0.13,0-0.24-0.11-0.24-0.24v-8.49C42.25,68.09,42.36,67.98,42.49,67.98L42.49,67.98L42.49,67.98L42.49,67.98z"/></g></svg>