<svg xmlns="http://www.w3.org/2000/svg" width="32" height="32" id="building"><path fill="#cd8e45" d="M6 25.029V7.162l10-5.77 10 5.77v17.867l-10-5.455z"></path><path fill="#ffab40" d="m26 7.173-10-5.77v-1l10 5.77z"></path><path fill="#ffab40" d="m6 7.173 10-5.77v-1L6 6.174zM26 6.17l-10 5.77v1l10-5.77z"></path><path fill="#fecb5b" d="m26 7.167-10 5.774V31l10-5.77z"></path><path fill="#f8b545" d="m6 7.167 10 5.774V31l-10-5.77z"></path><path fill="#ffab40" d="m6 6.17 10 5.769v1L6 7.169z"></path><path fill="#6fb7e6" d="m19 12.384-2 1.155v3.012l2-1.154zm3-1.729-2 1.155v3.012l2-1.154zm3-1.73-2 1.154v3.012l2-1.154zm-6 7.589-2 1.154v3.012l2-1.154zm3-1.73-2 1.155v3.012l2-1.154zm3-1.73-2 1.155v3.012l2-1.154zm-6 7.589-2 1.155v3.012l2-1.154zm3-1.729-2 1.155v3.012l2-1.154zm3-1.73-2 1.154v3.012l2-1.154zm-6 7.588-2 1.155v3.012l2-1.154zm3-1.729-2 1.155v3.012l2-1.154zm3-1.73-2 1.154v3.012l2-1.154z"></path><path fill="#3a90cd" d="m13 12.384 2 1.155v3.012l-2-1.154zm-3-1.729 2 1.155v3.012l-2-1.154zm-3-1.73 2 1.154v3.012l-2-1.154zm6 7.589 2 1.154v3.012l-2-1.154zm-3-1.73 2 1.155v3.012l-2-1.154zm-3-1.73 2 1.155v3.012l-2-1.154zm6 7.589 2 1.155v3.012l-2-1.154zm-3-1.729 2 1.155v3.012l-2-1.154zm-3-1.73 2 1.154v3.012l-2-1.154zm6 7.588 2 1.155v3.012l-2-1.154zm-3-1.729 2 1.155v3.012l-2-1.154zm-3-1.73 2 1.154v3.012l-2-1.154z"></path></svg>