<svg xmlns="http://www.w3.org/2000/svg" viewBox="0 0 32 32" id="building"><path fill="#010101" d="M29.5 29H28V11.5a.5.5 0 0 0-.5-.5H26V9.5a.5.5 0 0 0-.5-.5H24V7.5a.5.5 0 0 0-.5-.5h-1V5.5a.5.5 0 0 0-1 0V7h-1a.5.5 0 0 0-.5.5V9h-1V2.5a.5.5 0 0 0-.5-.5h-14a.5.5 0 0 0-.5.5V29H2.5a.5.5 0 0 0 0 1h27a.5.5 0 0 0 0-1zM21 8h2v1h-2V8zm4 2v1h-6v-1h6zM5 3h13v8H7.5a.5.5 0 0 0 0 1H16v2H7.5a.5.5 0 0 0 0 1H16v2H7.5a.5.5 0 0 0 0 1H16v2H7.5a.5.5 0 0 0 0 1H16v2H7.5a.5.5 0 0 0 0 1H16v2H7.5a.5.5 0 0 0 0 1H16v2H5V3zm13.5 26H17V12h10v17h-8.5z"></path><path fill="#010101" d="M7.5 9h9a.5.5 0 0 0 0-1h-9a.5.5 0 0 0 0 1zm17 5h-5a.5.5 0 0 0 0 1h5a.5.5 0 0 0 0-1zm0 4h-5a.5.5 0 0 0 0 1h5a.5.5 0 0 0 0-1zm0 4h-5a.5.5 0 0 0 0 1h5a.5.5 0 0 0 0-1zm0 4h-5a.5.5 0 0 0 0 1h5a.5.5 0 0 0 0-1zM7.5 6h9a.5.5 0 0 0 0-1h-9a.5.5 0 0 0 0 1z"></path></svg>