<svg xmlns="http://www.w3.org/2000/svg" viewBox="0 0 3591.149 3075.098" id="building"><path fill="#282d35" d="M282.768 1138.14h212.076v205.007H282.768zM622.089 1138.14h205.007v205.007H622.089zM282.768 1463.323h205.007v212.076H282.768zM622.089 1463.323h212.076v212.076H622.089zM282.768 1802.644h205.007v205.007H282.768zM622.089 1802.644h212.076v205.007H622.089zM282.768 2120.757h205.007v212.076H282.768zM622.089 2120.757h212.076v212.076H622.089zM282.768 2460.079h205.007v205.007H282.768zM622.089 2460.079h212.076v205.007H622.089z"></path><path fill="#282d35" d="M3591.149 812.957h-982.617V0H982.618v812.957H0v2262.141h3591.149V812.957zM982.618 2947.853H120.176V940.203h862.441v2007.65zm1067.447 7.069h-508.982v-742.265h508.982v742.265zm-629.158-869.511v869.51h-311.044V120.176h1371.423l-7.069 2834.746h-296.906v-869.51h-756.404zm2042.997 862.442h-855.372V940.203h855.372v2007.65z"></path><path fill="#282d35" d="M2764.054 1138.14h205.007v205.007h-205.007zM3096.306 1138.14h212.076v205.007h-212.076zM2756.984 1463.323h212.076v212.076h-212.076zM3103.375 1463.323h205.007v212.076h-205.007zM2756.984 1802.644h212.076v205.007h-212.076zM3103.375 1802.644h205.007v205.007h-205.007zM2756.984 2120.757h212.076v212.076h-212.076zM3103.375 2120.757h205.007v212.076h-205.007zM2756.984 2460.079h212.076v205.007h-212.076zM3103.375 2460.079h205.007v205.007h-205.007zM1272.454 996.756h212.076v205.007h-212.076zM2092.48 996.756h212.076v205.007H2092.48zM1272.454 1321.939h212.076v212.076h-212.076zM2099.55 1321.939h205.007v212.076H2099.55zM1272.454 1661.26h212.076v205.007h-212.076zM2099.55 1661.26h205.007v205.007H2099.55zM1682.467 989.687h212.076v212.076h-212.076zM1272.454 664.504h212.076v205.007h-212.076zM2092.48 664.504h212.076v205.007H2092.48zM1682.467 664.504h212.076v205.007h-212.076zM1272.454 332.252h212.076v205.007h-212.076zM2092.48 332.252h212.076v205.007H2092.48zM1682.467 332.252h212.076v205.007h-212.076zM1682.467 1321.939h212.076v205.007h-212.076zM1682.467 1654.191h212.076v212.076h-212.076z"></path></svg>