<svg xmlns="http://www.w3.org/2000/svg" width="32" height="32" id="building"><g color="#000"><path fill="#f05542" d="M222.643 511.984a.5.5 0 0 0-.5.5v18a.5.5 0 0 0 .5.5h8a.5.5 0 1 0 0-1h-7.5v-17h7v1.25a.5.5 0 1 0 1 0v-1.75a.5.5 0 0 0-.5-.5h-8z" font-family="sans-serif" font-weight="400" overflow="visible" style="line-height:normal;text-indent:0;text-align:start;text-decoration-line:none;text-decoration-style:solid;text-decoration-color:#000;text-transform:none;block-progression:tb;isolation:auto;mix-blend-mode:normal" transform="translate(-220.143 -505.984)"></path><path fill="#f8b84e" d="M241.643 511.984a.5.5 0 0 0-.5.5v1.825a.5.5 0 1 0 1 0v-1.325h7v17h-7.5a.5.5 0 1 0 0 1h8a.5.5 0 0 0 .5-.5v-18a.5.5 0 0 0-.5-.5h-8z" font-family="sans-serif" font-weight="400" overflow="visible" style="line-height:normal;text-indent:0;text-align:start;text-decoration-line:none;text-decoration-style:solid;text-decoration-color:#000;text-transform:none;block-progression:tb;isolation:auto;mix-blend-mode:normal" transform="translate(-220.143 -505.984)"></path><path fill="#34485c" d="M243.635 516.98a.5.5 0 0 0-.492.506v12.498h-14v-12.216a.5.5 0 1 0-1 0v12.716a.5.5 0 0 0 .5.5h15a.5.5 0 0 0 .5-.5v-12.998a.5.5 0 0 0-.508-.506z" font-family="sans-serif" font-weight="400" overflow="visible" style="line-height:normal;text-indent:0;text-align:start;text-decoration-line:none;text-decoration-style:solid;text-decoration-color:#000;text-transform:none;block-progression:tb;isolation:auto;mix-blend-mode:normal" transform="translate(-220.143 -505.984)"></path><path fill="#f05542" d="M221.643 509.984a.5.5 0 0 0-.5.5v2a.5.5 0 0 0 .5.5h10a.5.5 0 0 0 .5-.5v-2a.5.5 0 0 0-.5-.5h-10zm.5 1h9v1h-9v-1z" font-family="sans-serif" font-weight="400" overflow="visible" style="line-height:normal;text-indent:0;text-align:start;text-decoration-line:none;text-decoration-style:solid;text-decoration-color:#000;text-transform:none;block-progression:tb;isolation:auto;mix-blend-mode:normal" transform="translate(-220.143 -505.984)"></path><path fill="#f8b84e" d="M240.643 509.984a.5.5 0 0 0-.5.5v2a.5.5 0 0 0 .5.5h10a.5.5 0 0 0 .5-.5v-2a.5.5 0 0 0-.5-.5h-10zm.5 1h9v1h-9v-1z" font-family="sans-serif" font-weight="400" overflow="visible" style="line-height:normal;text-indent:0;text-align:start;text-decoration-line:none;text-decoration-style:solid;text-decoration-color:#000;text-transform:none;block-progression:tb;isolation:auto;mix-blend-mode:normal" transform="translate(-220.143 -505.984)"></path><path fill="#f17f53" d="M224.143 513.985h1v1h-1zm2 0h1v1h-1zm-2 2h1v1h-1zm2 0h1v1h-1zm-2 2h1v1h-1zm2 0h1v1h-1zm-2 2h1v1h-1zm2 0h1v1h-1zm-2 2h1v1h-1zm2 0h1v1h-1zm-2 2h1v1h-1zm2 0h1v1h-1zm-2 2h1v1h-1zm2 0h1v1h-1zm-2 2h1v1h-1zm2 0h1v1h-1z" overflow="visible" style="isolation:auto;mix-blend-mode:normal" transform="translate(-220.143 -505.984)"></path><path fill="#fcd062" d="M245.143 513.985h1v1h-1zm2 0h1v1h-1zm-2 2h1v1h-1zm2 0h1v1h-1zm-2 2h1v1h-1zm2 0h1v1h-1zm-2 2h1v1h-1zm2 0h1v1h-1zm-2 2h1v1h-1zm2 0h1v1h-1zm-2 2h1v1h-1zm2 0h1v1h-1zm-2 2h1v1h-1zm2 0h1v1h-1zm-2 2h1v1h-1zm2 0h1v1h-1z" overflow="visible" style="isolation:auto;mix-blend-mode:normal" transform="translate(-220.143 -505.984)"></path><path fill="#576d7e" d="M232.643 522.984a.5.5 0 0 0-.5.5v7a.5.5 0 0 0 .5.5h7a.5.5 0 0 0 .5-.5v-7a.5.5 0 0 0-.5-.5h-7zm.5 1h6v6h-6v-6z" font-family="sans-serif" font-weight="400" overflow="visible" style="line-height:normal;text-indent:0;text-align:start;text-decoration-line:none;text-decoration-style:solid;text-decoration-color:#000;text-transform:none;block-progression:tb;isolation:auto;mix-blend-mode:normal" transform="translate(-220.143 -505.984)"></path><path fill="#576d7e" fill-rule="evenodd" d="M235.643 523.484v7h1v-7h-1z" font-family="sans-serif" font-weight="400" overflow="visible" style="line-height:normal;text-indent:0;text-align:start;text-decoration-line:none;text-decoration-style:solid;text-decoration-color:#000;text-transform:none;block-progression:tb;isolation:auto;mix-blend-mode:normal" transform="translate(-220.143 -505.984)"></path><path fill="#34485c" d="M227.143 513.984a.5.5 0 0 0-.5.5v3a.5.5 0 0 0 .5.5h17.5a.5.5 0 0 0 .5-.5v-3a.5.5 0 0 0-.5-.5h-17.5zm.5 1h16.5v2h-16.5v-2z" font-family="sans-serif" font-weight="400" overflow="visible" style="line-height:normal;text-indent:0;text-align:start;text-decoration-line:none;text-decoration-style:solid;text-decoration-color:#000;text-transform:none;block-progression:tb;isolation:auto;mix-blend-mode:normal" transform="translate(-220.143 -505.984)"></path><path fill="#25b39e" fill-rule="evenodd" d="M221.143 529.984v1h30v-1h-30zm10 2v1h10v-1h-10zm-2 2v1h14v-1h-14z" font-family="sans-serif" font-weight="400" overflow="visible" style="line-height:normal;text-indent:0;text-align:start;text-decoration-line:none;text-decoration-style:solid;text-decoration-color:#000;text-transform:none;block-progression:tb;isolation:auto;mix-blend-mode:normal" transform="translate(-220.143 -505.984)"></path></g></svg>