<svg xmlns="http://www.w3.org/2000/svg" width="32" height="32" viewBox="0 0 32 32" id="building"><path d="M2 32h26a2 2 0 0 0 2-2V18a2 2 0 0 0-2-2h-6a2 2 0 0 0-2 2V2a2 2 0 0 0-2-2h-6a2 2 0 0 0-2 2v8a2 2 0 0 0-2-2H2a2 2 0 0 0-2 2v20a2 2 0 0 0 2 2zm0-2v-4h2v4H2zm2-12v2H2v-2h2zm-2-2v-2h2v2H2zm2 6v2H2v-2h2zm2-2v-2h2v2H6zm2 2v2H6v-2h2zm-2-6v-2h2v2H6zm0 14v-4h2v4H6zm2-18H6v-2h2v2zm-4 0H2v-2h2v2zm12 18v-4h2v4h-2zm-2-20v2h-2v-2h2zm-2-2V6h2v2h-2zm2 6v2h-2v-2h2zm0 4v2h-2v-2h2zm0 4v2h-2v-2h2zm2-2v-2h2v2h-2zm2 2v2h-2v-2h2zm-2-6v-2h2v2h-2zm0-4v-2h2v2h-2zm0-4V6h2v2h-2zm2-4h-2V2h2v2zm-4 0h-2V2h2v2zm-2 22h2v4h-2v-4zm12-2h-2v-2h2v2zm2-2h2v2h-2v-2zm0 4h2v4h-2v-4zm2-6h-2v-2h2v2zm-4 0h-2v-2h2v2zm-2 6h2v4h-2v-4z"></path></svg>