<svg xmlns="http://www.w3.org/2000/svg" viewBox="0 0 24 24" id="building"><path fill="#fff" d="M2.5 6.5 1 4.5 2.5 3l1-1.5H5L6.5 3h2L10 4.5l-1.5 2zM15.5 1.5v10l-4-4-4 4v4h-5l-2 3h1v5h22v-22z"></path><path fill="#cce7ff" d="M3.5 23.5v-3h2v3M13.5 13.5l-4 3h4zM13.5 18.5l-4 3h4zM23.5 1.5l-8 22h8z"></path><path fill="none" stroke="#1078ff" stroke-linecap="round" stroke-linejoin="round" stroke-miterlimit="10" d="m2.5 15.5-2 3h7v-3zM7.5 23.5v-12l4-4 4 4v12M15.5 11.5v-10h8v22M1.5 18.5v5M7.5 11.5h8M18.5 3.5v2M20.5 3.5v2M18.5 7.5v2M20.5 7.5v2M18.5 11.5v2M20.5 11.5v2M18.5 15.5v2M20.5 15.5v2"></path><path fill="none" stroke="#1078ff" stroke-linecap="round" stroke-linejoin="round" stroke-miterlimit="10" d="M9.5 13.5h4v3h-4zM9.5 18.5h4v3h-4zM18.5 19.5v2M20.5 19.5v2M3.5 23.5v-3h2v3M23.5 23.5h-22M2.5 6.5 1 4.5 2.5 3l1-1.5H5L6.5 3h2L10 4.5l-1.5 2z"></path><path fill="none" d="M0 0h24v24H0z"></path></svg>