<svg xmlns="http://www.w3.org/2000/svg" viewBox="0 0 128 132" id="building"><path fill="#F8EBCB" d="m125 101-61 31V68l61-30.5z"></path><path fill="#F8EBCB" d="m125 100-2 1V72.5l2-1zM122 101l1 .4V72.5l-1 .5z"></path><path d="m122 101 1 .4V72.5l-1 .5z" opacity=".1"></path><path fill="#F8EBCB" d="m66 131-2 1v-30l2-1z"></path><path d="M125 71.5 64 102v-1l61-30.5z" opacity=".15"></path><path fill="#FFF" d="M125 70.5 64 101v-1l61-30.5z" opacity=".5"></path><path d="M125 39.5 64 70v-1l61-30.5z" opacity=".15"></path><path fill="#FFF" d="M125 38.5 64 69v-1l61-30.5z" opacity=".5"></path><path d="m66 101 1-.5v29l-1 .5zM66 69l1-.5v30l-1 .5zM122 41l1-.5v30l-1 .5z" opacity=".15"></path><path fill="#7FADB9" d="m120 70-5 2.5V64c0-1.4 1.1-3.1 2.5-3.8 1.4-.7 2.5-.1 2.5 1.2V70z"></path><path fill="#39C" d="M117.5 60.2c-1.4.7-2.5 2.4-2.5 3.8v8.5l2-1 1-.5 2-1v-8.5c0-1.4-1.1-1.9-2.5-1.3zm-1.5 3.3c0-.7.4-1.4 1-1.9v2.9l-1 .5v-1.5zm0 2.5 1-.5v2l-1 .5v-2zm0 5v-2l1-.5v2l-1 .5zm3-1.5-1 .5v-2l1-.5v2zm0-3-1 .5v-2l1-.5v2zm0-3-1 .5v-2.9c.6-.1 1 .3 1 .9v1.5z"></path><path d="M117.5 60.2c-.2.1-.4.3-.6.4 1.2-.5 2.1 0 2.1 1.2v7.4l-4 2v1l5-2.5v-8.2c0-1.4-1.1-1.9-2.5-1.3z" opacity=".4"></path><path fill="#FFF" d="m121 70.5-7 3.5v-1l7-3.5z" opacity=".5"></path><path fill="#7FADB9" d="m112 74-5 2.5V68c0-1.4 1.1-3.1 2.5-3.8 1.4-.7 2.5-.1 2.5 1.2V74z"></path><path fill="#39C" d="M109.5 64.2c-1.4.7-2.5 2.4-2.5 3.8v8.5l2-1 1-.5 2-1v-8.5c0-1.4-1.1-1.9-2.5-1.3zm-1.5 3.3c0-.7.4-1.4 1-1.9v2.9l-1 .5v-1.5zm0 2.5 1-.5v2l-1 .5v-2zm0 5v-2l1-.5v2l-1 .5zm3-1.5-1 .5v-2l1-.5v2zm0-3-1 .5v-2l1-.5v2zm0-3-1 .5v-2.9c.6-.1 1 .3 1 .9v1.5z"></path><path d="M109.5 64.2c-.2.1-.4.3-.6.4 1.2-.5 2.1 0 2.1 1.2v7.4l-4 2v1l5-2.5v-8.2c0-1.4-1.1-1.9-2.5-1.3z" opacity=".4"></path><path fill="#FFF" d="m113 74.5-7 3.5v-1l7-3.5z" opacity=".5"></path><path fill="#7FADB9" d="M101 79.5 96 82v-8.5c0-1.4 1.1-3.1 2.5-3.8 1.4-.7 2.5-.1 2.5 1.2v8.6z"></path><path fill="#39C" d="M98.5 69.7c-1.4.7-2.5 2.4-2.5 3.8V82l2-1 1-.5 2-1V71c0-1.4-1.1-1.9-2.5-1.3zM97 73c0-.7.4-1.4 1-1.9V74l-1 .5V73zm0 2.5 1-.5v2l-1 .5v-2zm0 5v-2l1-.5v2l-1 .5zm3-1.5-1 .5v-2l1-.5v2zm0-3-1 .5v-2l1-.5v2zm0-3-1 .5v-2.9c.6-.1 1 .3 1 .9V73z"></path><path d="M98.5 69.7c-.2.1-.4.3-.6.4 1.2-.5 2.1 0 2.1 1.2v7.4l-4 2v1l5-2.5V71c0-1.4-1.1-1.9-2.5-1.3z" opacity=".4"></path><path fill="#FFF" d="m102 80-7 3.5v-1l7-3.5z" opacity=".5"></path><path fill="#7FADB9" d="M93 83.5 88 86v-8.5c0-1.4 1.1-3.1 2.5-3.8 1.4-.7 2.5-.1 2.5 1.2v8.6z"></path><path fill="#39C" d="M90.5 73.8c-1.4.7-2.5 2.4-2.5 3.8V86l2-1 1-.5 2-1V75c0-1.4-1.1-1.9-2.5-1.2zM89 77c0-.7.4-1.4 1-1.9V78l-1 .5V77zm0 2.5 1-.5v2l-1 .5v-2zm0 5v-2l1-.5v2l-1 .5zm3-1.5-1 .5v-2l1-.5v2zm0-3-1 .5v-2l1-.5v2zm0-3-1 .5v-2.9c.6-.1 1 .3 1 .9V77z"></path><path d="M90.5 73.8c-.2.1-.4.3-.6.4 1.2-.5 2.1 0 2.1 1.2v7.4l-4 2v1l5-2.5V75c0-1.4-1.1-1.9-2.5-1.2z" opacity=".4"></path><path fill="#FFF" d="m94 84-7 3.5v-1l7-3.5z" opacity=".5"></path><path fill="#7FADB9" d="m82 89-5 2.5V83c0-1.4 1.1-3.1 2.5-3.8 1.4-.7 2.5-.1 2.5 1.2V89z"></path><path fill="#39C" d="M79.5 79.3c-1.4.6-2.5 2.3-2.5 3.7v8.5l2-1 1-.5 2-1v-8.5c0-1.4-1.1-1.9-2.5-1.2zM78 82.5c0-.7.4-1.4 1-1.9v2.9l-1 .5v-1.5zm0 2.5 1-.5v2l-1 .5v-2zm0 5v-2l1-.5v2l-1 .5zm3-1.5-1 .5v-2l1-.5v2zm0-3-1 .5v-2l1-.5v2zm0-3-1 .5v-2.9c.6-.1 1 .3 1 .9v1.5z"></path><path d="M79.5 79.3c-.2.1-.4.3-.6.4 1.2-.5 2.1 0 2.1 1.2v7.4l-4 2v1l5-2.5v-8.2c0-1.5-1.1-2-2.5-1.3z" opacity=".4"></path><path fill="#FFF" d="M83 89.5 76 93v-1l7-3.5z" opacity=".5"></path><path fill="#7FADB9" d="m74 93-5 2.5V87c0-1.4 1.1-3.1 2.5-3.8 1.4-.7 2.5-.1 2.5 1.2V93z"></path><path fill="#39C" d="M71.5 83.3c-1.4.6-2.5 2.3-2.5 3.7v8.5l2-1 1-.5 2-1v-8.5c0-1.4-1.1-1.9-2.5-1.2zM70 86.5c0-.7.4-1.4 1-1.9v2.9l-1 .5v-1.5zm0 2.5 1-.5v2l-1 .5v-2zm0 5v-2l1-.5v2l-1 .5zm3-1.5-1 .5v-2l1-.5v2zm0-3-1 .5v-2l1-.5v2zm0-3-1 .5v-2.9c.6-.1 1 .3 1 .9v1.5z"></path><path d="M71.5 83.3c-.2.1-.4.3-.6.4 1.2-.5 2.1 0 2.1 1.2v7.4l-4 2v1l5-2.5v-8.2c0-1.5-1.1-2-2.5-1.3z" opacity=".4"></path><path fill="#FFF" d="M75 93.5 68 97v-1l7-3.5z" opacity=".5"></path><path fill="#7FADB9" d="m120 56-5 2.5V50c0-1.4 1.1-3.1 2.5-3.8 1.4-.7 2.5-.1 2.5 1.2V56z"></path><path fill="#39C" d="M117.5 46.2c-1.4.7-2.5 2.4-2.5 3.8v8.5l2-1 1-.5 2-1v-8.5c0-1.4-1.1-1.9-2.5-1.3zm-1.5 3.3c0-.7.4-1.4 1-1.9v2.9l-1 .5v-1.5zm0 2.5 1-.5v2l-1 .5v-2zm0 5v-2l1-.5v2l-1 .5zm3-1.5-1 .5v-2l1-.5v2zm0-3-1 .5v-2l1-.5v2zm0-3-1 .5v-2.9c.6-.1 1 .3 1 .9v1.5z"></path><path d="M117.5 46.2c-.2.1-.4.3-.6.4 1.2-.5 2.1 0 2.1 1.2v7.4l-4 2v1l5-2.5v-8.2c0-1.4-1.1-1.9-2.5-1.3z" opacity=".4"></path><path fill="#FFF" d="m121 56.5-7 3.5v-1l7-3.5z" opacity=".5"></path><path fill="#7FADB9" d="m112 60-5 2.5V54c0-1.4 1.1-3.1 2.5-3.8 1.4-.7 2.5-.1 2.5 1.2V60z"></path><path fill="#39C" d="M109.5 50.2c-1.4.7-2.5 2.4-2.5 3.8v8.5l2-1 1-.5 2-1v-8.5c0-1.4-1.1-1.9-2.5-1.3zm-1.5 3.3c0-.7.4-1.4 1-1.9v2.9l-1 .5v-1.5zm0 2.5 1-.5v2l-1 .5v-2zm0 5v-2l1-.5v2l-1 .5zm3-1.5-1 .5v-2l1-.5v2zm0-3-1 .5v-2l1-.5v2zm0-3-1 .5v-2.9c.6-.1 1 .3 1 .9v1.5z"></path><path d="M109.5 50.2c-.2.1-.4.3-.6.4 1.2-.5 2.1 0 2.1 1.2v7.4l-4 2v1l5-2.5v-8.2c0-1.4-1.1-1.9-2.5-1.3z" opacity=".4"></path><path fill="#FFF" d="m113 60.5-7 3.5v-1l7-3.5z" opacity=".5"></path><path fill="#7FADB9" d="M101 65.5 96 68v-8.5c0-1.4 1.1-3.1 2.5-3.8 1.4-.7 2.5-.1 2.5 1.2v8.6z"></path><path fill="#39C" d="M98.5 55.7c-1.4.7-2.5 2.4-2.5 3.8V68l2-1 1-.5 2-1V57c0-1.4-1.1-1.9-2.5-1.3zM97 59c0-.7.4-1.4 1-1.9V60l-1 .5V59zm0 2.5 1-.5v2l-1 .5v-2zm0 5v-2l1-.5v2l-1 .5zm3-1.5-1 .5v-2l1-.5v2zm0-3-1 .5v-2l1-.5v2zm0-3-1 .5v-2.9c.6-.1 1 .3 1 .9V59z"></path><path d="M98.5 55.7c-.2.1-.4.3-.6.4 1.2-.5 2.1 0 2.1 1.2v7.4l-4 2v1l5-2.5V57c0-1.4-1.1-1.9-2.5-1.3z" opacity=".4"></path><path fill="#FFF" d="m102 66-7 3.5v-1l7-3.5z" opacity=".5"></path><path fill="#7FADB9" d="M93 69.5 88 72v-8.5c0-1.4 1.1-3.1 2.5-3.8 1.4-.7 2.5-.1 2.5 1.2v8.6z"></path><path fill="#39C" d="M90.5 59.8c-1.4.7-2.5 2.4-2.5 3.8V72l2-1 1-.5 2-1V61c0-1.4-1.1-1.9-2.5-1.2zM89 63c0-.7.4-1.4 1-1.9V64l-1 .5V63zm0 2.5 1-.5v2l-1 .5v-2zm0 5v-2l1-.5v2l-1 .5zm3-1.5-1 .5v-2l1-.5v2zm0-3-1 .5v-2l1-.5v2zm0-3-1 .5v-2.9c.6-.1 1 .3 1 .9V63z"></path><path d="M90.5 59.8c-.2.1-.4.3-.6.4 1.2-.5 2.1 0 2.1 1.2v7.4l-4 2v1l5-2.5V61c0-1.4-1.1-1.9-2.5-1.2z" opacity=".4"></path><path fill="#FFF" d="m94 70-7 3.5v-1l7-3.5z" opacity=".5"></path><path fill="#7FADB9" d="m82 75-5 2.5V69c0-1.4 1.1-3.1 2.5-3.8 1.4-.7 2.5-.1 2.5 1.2V75z"></path><path fill="#39C" d="M79.5 65.3c-1.4.6-2.5 2.3-2.5 3.7v8.5l2-1 1-.5 2-1v-8.5c0-1.4-1.1-1.9-2.5-1.2zM78 68.5c0-.7.4-1.4 1-1.9v2.9l-1 .5v-1.5zm0 2.5 1-.5v2l-1 .5v-2zm0 5v-2l1-.5v2l-1 .5zm3-1.5-1 .5v-2l1-.5v2zm0-3-1 .5v-2l1-.5v2zm0-3-1 .5v-2.9c.6-.1 1 .3 1 .9v1.5z"></path><path d="M79.5 65.3c-.2.1-.4.3-.6.4 1.2-.5 2.1 0 2.1 1.2v7.4l-4 2v1l5-2.5v-8.2c0-1.5-1.1-2-2.5-1.3z" opacity=".4"></path><path fill="#FFF" d="M83 75.5 76 79v-1l7-3.5z" opacity=".5"></path><path fill="#7FADB9" d="m74 79-5 2.5V73c0-1.4 1.1-3.1 2.5-3.8 1.4-.7 2.5-.1 2.5 1.2V79z"></path><path fill="#39C" d="M71.5 69.3c-1.4.6-2.5 2.3-2.5 3.7v8.5l2-1 1-.5 2-1v-8.5c0-1.4-1.1-1.9-2.5-1.2zM70 72.5c0-.7.4-1.4 1-1.9v2.9l-1 .5v-1.5zm0 2.5 1-.5v2l-1 .5v-2zm0 5v-2l1-.5v2l-1 .5zm3-1.5-1 .5v-2l1-.5v2zm0-3-1 .5v-2l1-.5v2zm0-3-1 .5v-2.9c.6-.1 1 .3 1 .9v1.5z"></path><path d="M71.5 69.3c-.2.1-.4.3-.6.4 1.2-.5 2.1 0 2.1 1.2v7.4l-4 2v1l5-2.5v-8.2c0-1.5-1.1-2-2.5-1.3z" opacity=".4"></path><path fill="#FFF" d="M75 79.5 68 83v-1l7-3.5z" opacity=".5"></path><path d="m125 101-61 31v-1l61-31z" opacity=".15"></path><path fill="#FFF" d="m125 100-61 31v-1l61-31z" opacity=".5"></path><path fill="#7FADB9" d="m120 100-5 2.5V94c0-1.4 1.1-3.1 2.5-3.8 1.4-.7 2.5-.1 2.5 1.2v8.6z"></path><path fill="#39C" d="M117.5 90.2c-1.4.7-2.5 2.4-2.5 3.8v8.5l2-1 1-.5 2-1v-8.5c0-1.4-1.1-1.9-2.5-1.3zm-1.5 3.3c0-.7.4-1.4 1-1.9v2.9l-1 .5v-1.5zm0 2.5 1-.5v2l-1 .5v-2zm0 5v-2l1-.5v2l-1 .5zm3-1.5-1 .5v-2l1-.5v2zm0-3-1 .5v-2l1-.5v2zm0-3-1 .5v-2.9c.6-.1 1 .3 1 .9v1.5z"></path><path d="M117.5 90.2c-.2.1-.4.3-.6.4 1.2-.5 2.1 0 2.1 1.2v7.4l-4 2v1l5-2.5v-8.2c0-1.4-1.1-1.9-2.5-1.3z" opacity=".4"></path><path fill="#FFF" d="m121 100.5-7 3.5v-1l7-3.5z" opacity=".5"></path><path fill="#7FADB9" d="m112 104-5 2.5V98c0-1.4 1.1-3.1 2.5-3.8 1.4-.7 2.5-.1 2.5 1.2v8.6z"></path><path fill="#39C" d="M109.5 94.2c-1.4.7-2.5 2.4-2.5 3.8v8.5l2-1 1-.5 2-1v-8.5c0-1.4-1.1-1.9-2.5-1.3zm-1.5 3.3c0-.7.4-1.4 1-1.9v2.9l-1 .5v-1.5zm0 2.5 1-.5v2l-1 .5v-2zm0 5v-2l1-.5v2l-1 .5zm3-1.5-1 .5v-2l1-.5v2zm0-3-1 .5v-2l1-.5v2zm0-3-1 .5v-2.9c.6-.1 1 .3 1 .9v1.5z"></path><path d="M109.5 94.2c-.2.1-.4.3-.6.4 1.2-.5 2.1 0 2.1 1.2v7.4l-4 2v1l5-2.5v-8.2c0-1.4-1.1-1.9-2.5-1.3z" opacity=".4"></path><path fill="#FFF" d="m113 104.5-7 3.5v-1l7-3.5z" opacity=".5"></path><path fill="#7FADB9" d="m101 109.5-5 2.5v-8.5c0-1.4 1.1-3.1 2.5-3.8 1.4-.7 2.5-.1 2.5 1.2v8.6z"></path><path fill="#39C" d="M98.5 99.7c-1.4.7-2.5 2.4-2.5 3.8v8.5l2-1 1-.5 2-1V101c0-1.4-1.1-1.9-2.5-1.3zM97 103c0-.7.4-1.4 1-1.9v2.9l-1 .5V103zm0 2.5 1-.5v2l-1 .5v-2zm0 5v-2l1-.5v2l-1 .5zm3-1.5-1 .5v-2l1-.5v2zm0-3-1 .5v-2l1-.5v2zm0-3-1 .5v-2.9c.6-.1 1 .3 1 .9v1.5z"></path><path d="M98.5 99.7c-.2.1-.4.3-.6.4 1.2-.5 2.1 0 2.1 1.2v7.4l-4 2v1l5-2.5V101c0-1.4-1.1-1.9-2.5-1.3z" opacity=".4"></path><path fill="#FFF" d="m102 110-7 3.5v-1l7-3.5z" opacity=".5"></path><path fill="#7FADB9" d="m93 113.5-5 2.5v-8.5c0-1.4 1.1-3.1 2.5-3.8 1.4-.7 2.5-.1 2.5 1.2v8.6z"></path><path fill="#39C" d="M90.5 103.8c-1.4.7-2.5 2.4-2.5 3.8v8.5l2-1 1-.5 2-1V105c0-1.4-1.1-1.9-2.5-1.2zM89 107c0-.7.4-1.4 1-1.9v2.9l-1 .5V107zm0 2.5 1-.5v2l-1 .5v-2zm0 5v-2l1-.5v2l-1 .5zm3-1.5-1 .5v-2l1-.5v2zm0-3-1 .5v-2l1-.5v2zm0-3-1 .5v-2.9c.6-.1 1 .3 1 .9v1.5z"></path><path d="M90.5 103.8c-.2.1-.4.3-.6.4 1.2-.5 2.1 0 2.1 1.2v7.4l-4 2v1l5-2.5V105c0-1.4-1.1-1.9-2.5-1.2z" opacity=".4"></path><path fill="#FFF" d="m94 114-7 3.5v-1l7-3.5z" opacity=".5"></path><path fill="#7FADB9" d="m82 119-5 2.5V113c0-1.4 1.1-3.1 2.5-3.8 1.4-.7 2.5-.1 2.5 1.2v8.6z"></path><path fill="#39C" d="M79.5 109.3c-1.4.7-2.5 2.4-2.5 3.8v8.5l2-1 1-.5 2-1v-8.5c0-1.5-1.1-2-2.5-1.3zm-1.5 3.2c0-.7.4-1.4 1-1.9v2.9l-1 .5v-1.5zm0 2.5 1-.5v2l-1 .5v-2zm0 5v-2l1-.5v2l-1 .5zm3-1.5-1 .5v-2l1-.5v2zm0-3-1 .5v-2l1-.5v2zm0-3-1 .5v-2.9c.6-.1 1 .3 1 .9v1.5z"></path><path d="M79.5 109.3c-.2.1-.4.3-.6.4 1.2-.5 2.1 0 2.1 1.2v7.4l-4 2v1l5-2.5v-8.2c0-1.5-1.1-2-2.5-1.3z" opacity=".4"></path><path fill="#FFF" d="m83 119.5-7 3.5v-1l7-3.5z" opacity=".5"></path><path fill="#7FADB9" d="m74 123-5 2.5V117c0-1.4 1.1-3.1 2.5-3.8 1.4-.7 2.5-.1 2.5 1.2v8.6z"></path><path fill="#39C" d="M71.5 113.3c-1.4.7-2.5 2.4-2.5 3.8v8.5l2-1 1-.5 2-1v-8.5c0-1.5-1.1-2-2.5-1.3zm-1.5 3.2c0-.7.4-1.4 1-1.9v2.9l-1 .5v-1.5zm0 2.5 1-.5v2l-1 .5v-2zm0 5v-2l1-.5v2l-1 .5zm3-1.5-1 .5v-2l1-.5v2zm0-3-1 .5v-2l1-.5v2zm0-3-1 .5v-2.9c.6-.1 1 .3 1 .9v1.5z"></path><path d="M71.5 113.3c-.2.1-.4.3-.6.4 1.2-.5 2.1 0 2.1 1.2v7.4l-4 2v1l5-2.5v-8.2c0-1.5-1.1-2-2.5-1.3z" opacity=".4"></path><path fill="#FFF" d="m75 123.5-7 3.5v-1l7-3.5z" opacity=".5"></path><path fill="#7FADB9" d="m120 86-5 2.5V80c0-1.4 1.1-3.1 2.5-3.8 1.4-.7 2.5-.1 2.5 1.2V86z"></path><path fill="#39C" d="M117.5 76.2c-1.4.7-2.5 2.4-2.5 3.8v8.5l2-1 1-.5 2-1v-8.5c0-1.4-1.1-1.9-2.5-1.3zm-1.5 3.3c0-.7.4-1.4 1-1.9v2.9l-1 .5v-1.5zm0 2.5 1-.5v2l-1 .5v-2zm0 5v-2l1-.5v2l-1 .5zm3-1.5-1 .5v-2l1-.5v2zm0-3-1 .5v-2l1-.5v2zm0-3-1 .5v-2.9c.6-.1 1 .3 1 .9v1.5z"></path><path d="M117.5 76.2c-.2.1-.4.3-.6.4 1.2-.5 2.1 0 2.1 1.2v7.4l-4 2v1l5-2.5v-8.2c0-1.4-1.1-1.9-2.5-1.3z" opacity=".4"></path><path fill="#FFF" d="m121 86.5-7 3.5v-1l7-3.5z" opacity=".5"></path><path fill="#7FADB9" d="m112 90-5 2.5V84c0-1.4 1.1-3.1 2.5-3.8 1.4-.7 2.5-.1 2.5 1.2V90z"></path><path fill="#39C" d="M109.5 80.2c-1.4.7-2.5 2.4-2.5 3.8v8.5l2-1 1-.5 2-1v-8.5c0-1.4-1.1-1.9-2.5-1.3zm-1.5 3.3c0-.7.4-1.4 1-1.9v2.9l-1 .5v-1.5zm0 2.5 1-.5v2l-1 .5v-2zm0 5v-2l1-.5v2l-1 .5zm3-1.5-1 .5v-2l1-.5v2zm0-3-1 .5v-2l1-.5v2zm0-3-1 .5v-2.9c.6-.1 1 .3 1 .9v1.5z"></path><path d="M109.5 80.2c-.2.1-.4.3-.6.4 1.2-.5 2.1 0 2.1 1.2v7.4l-4 2v1l5-2.5v-8.2c0-1.4-1.1-1.9-2.5-1.3z" opacity=".4"></path><path fill="#FFF" d="m113 90.5-7 3.5v-1l7-3.5z" opacity=".5"></path><path fill="#7FADB9" d="M101 95.5 96 98v-8.5c0-1.4 1.1-3.1 2.5-3.8 1.4-.7 2.5-.1 2.5 1.2v8.6z"></path><path fill="#39C" d="M98.5 85.7c-1.4.7-2.5 2.4-2.5 3.8V98l2-1 1-.5 2-1V87c0-1.4-1.1-1.9-2.5-1.3zM97 89c0-.7.4-1.4 1-1.9V90l-1 .5V89zm0 2.5 1-.5v2l-1 .5v-2zm0 5v-2l1-.5v2l-1 .5zm3-1.5-1 .5v-2l1-.5v2zm0-3-1 .5v-2l1-.5v2zm0-3-1 .5v-2.9c.6-.1 1 .3 1 .9V89z"></path><path d="M98.5 85.7c-.2.1-.4.3-.6.4 1.2-.5 2.1 0 2.1 1.2v7.4l-4 2v1l5-2.5V87c0-1.4-1.1-1.9-2.5-1.3z" opacity=".4"></path><path fill="#FFF" d="m102 96-7 3.5v-1l7-3.5z" opacity=".5"></path><path fill="#7FADB9" d="m93 99.5-5 2.5v-8.5c0-1.4 1.1-3.1 2.5-3.8 1.4-.7 2.5-.1 2.5 1.2v8.6z"></path><path fill="#39C" d="M90.5 89.8c-1.4.7-2.5 2.4-2.5 3.8v8.5l2-1 1-.5 2-1V91c0-1.4-1.1-1.9-2.5-1.2zM89 93c0-.7.4-1.4 1-1.9V94l-1 .5V93zm0 2.5 1-.5v2l-1 .5v-2zm0 5v-2l1-.5v2l-1 .5zm3-1.5-1 .5v-2l1-.5v2zm0-3-1 .5v-2l1-.5v2zm0-3-1 .5v-2.9c.6-.1 1 .3 1 .9V93z"></path><path d="M90.5 89.8c-.2.1-.4.3-.6.4 1.2-.5 2.1 0 2.1 1.2v7.4l-4 2v1l5-2.5V91c0-1.4-1.1-1.9-2.5-1.2z" opacity=".4"></path><path fill="#FFF" d="m94 100-7 3.5v-1l7-3.5z" opacity=".5"></path><path fill="#7FADB9" d="m82 105-5 2.5V99c0-1.4 1.1-3.1 2.5-3.8 1.4-.7 2.5-.1 2.5 1.2v8.6z"></path><path fill="#39C" d="M79.5 95.3c-1.4.6-2.5 2.3-2.5 3.7v8.5l2-1 1-.5 2-1v-8.5c0-1.4-1.1-1.9-2.5-1.2zM78 98.5c0-.7.4-1.4 1-1.9v2.9l-1 .5v-1.5zm0 2.5 1-.5v2l-1 .5v-2zm0 5v-2l1-.5v2l-1 .5zm3-1.5-1 .5v-2l1-.5v2zm0-3-1 .5v-2l1-.5v2zm0-3-1 .5v-2.9c.6-.1 1 .3 1 .9v1.5z"></path><path d="M79.5 95.3c-.2.1-.4.3-.6.4 1.2-.5 2.1 0 2.1 1.2v7.4l-4 2v1l5-2.5v-8.2c0-1.5-1.1-2-2.5-1.3z" opacity=".4"></path><path fill="#FFF" d="m83 105.5-7 3.5v-1l7-3.5z" opacity=".5"></path><path fill="#7FADB9" d="m74 109-5 2.5V103c0-1.4 1.1-3.1 2.5-3.8 1.4-.7 2.5-.1 2.5 1.2v8.6z"></path><path fill="#39C" d="M71.5 99.3c-1.4.7-2.5 2.4-2.5 3.8v8.5l2-1 1-.5 2-1v-8.5c0-1.5-1.1-2-2.5-1.3zm-1.5 3.2c0-.7.4-1.4 1-1.9v2.9l-1 .5v-1.5zm0 2.5 1-.5v2l-1 .5v-2zm0 5v-2l1-.5v2l-1 .5zm3-1.5-1 .5v-2l1-.5v2zm0-3-1 .5v-2l1-.5v2zm0-3-1 .5v-2.9c.6-.1 1 .3 1 .9v1.5z"></path><path d="M71.5 99.3c-.2.1-.4.3-.6.4 1.2-.5 2.1 0 2.1 1.2v7.4l-4 2v1l5-2.5v-8.2c0-1.5-1.1-2-2.5-1.3z" opacity=".4"></path><path fill="#FFF" d="m75 109.5-7 3.5v-1l7-3.5z" opacity=".5"></path><path d="m125 101-61 31V68l61-30.5z" opacity=".39"></path><path fill="#F8EBCB" d="m3 101 61 31V68L3 37.5z"></path><path fill="#F8EBCB" d="m3 100 2 1V72.5l-2-1zM6 100.6l-1 .4V72.5l1 .5z"></path><path d="m6 100.6-1 .4V72.5l1 .5z" opacity=".1"></path><path fill="#F8EBCB" d="m62 131 2 1v-30l-2-1z"></path><path d="M3 71.5 64 102v-1L3 70.5z" opacity=".15"></path><path fill="#FFF" d="M3 70.5 64 101v-1L3 69.5z" opacity=".5"></path><path d="M3 39.5 64 70v-1L3 38.5z" opacity=".15"></path><path fill="#FFF" d="M3 38.5 64 69v-1L3 37.5z" opacity=".5"></path><path d="m62 101-1-.5v29l1 .5zM62 69l-1-.5v30l1 .5zM6 41l-1-.5v30l1 .5z" opacity=".15"></path><path fill="#7FADB9" d="M59 95.5 54 93v-8.5c0-1.4 1.1-1.9 2.5-1.2s2.5 2.4 2.5 3.8v8.4z"></path><path fill="#39C" d="M56.5 83.3c-1.4-.7-2.5-.1-2.5 1.2V93l2 1 1 .5 2 1V87c0-1.4-1.1-3.1-2.5-3.7zM55 85c0-.7.4-1 1-.9V87l-1-.5V85zm0 2.5 1 .5v2l-1-.5v-2zm0 5v-2l1 .5v2l-1-.5zm3 1.5-1-.5v-2l1 .5v2zm0-3-1-.5v-2l1 .5v2zm0-3-1-.5v-2.9c.6.5 1 1.3 1 1.9V88z"></path><path d="M56.5 83.3c-.2-.1-.4-.2-.6-.2 1.2.7 2.1 2.1 2.1 3.3v7.4l-4-2v1l5 2.5V87c0-1.4-1.1-3.1-2.5-3.7z" opacity=".4"></path><path fill="#FFF" d="m60 97-7-3.5v-1l7 3.5z" opacity=".5"></path><path fill="#7FADB9" d="M51 91.5 46 89v-8.5c0-1.4 1.1-1.9 2.5-1.2s2.5 2.4 2.5 3.8v8.4z"></path><path fill="#39C" d="M48.5 79.3c-1.4-.7-2.5-.1-2.5 1.2V89l2 1 1 .5 2 1V83c0-1.4-1.1-3.1-2.5-3.7zM47 81c0-.7.4-1 1-.9V83l-1-.5V81zm0 2.5 1 .5v2l-1-.5v-2zm0 5v-2l1 .5v2l-1-.5zm3 1.5-1-.5v-2l1 .5v2zm0-3-1-.5v-2l1 .5v2zm0-3-1-.5v-2.9c.6.5 1 1.3 1 1.9V84z"></path><path d="M48.5 79.3c-.2-.1-.4-.2-.6-.2 1.2.7 2.1 2.1 2.1 3.3v7.4l-4-2v1l5 2.5V83c0-1.4-1.1-3.1-2.5-3.7z" opacity=".4"></path><path fill="#FFF" d="m52 93-7-3.5v-1l7 3.5z" opacity=".5"></path><path fill="#7FADB9" d="m40 86-5-2.5V75c0-1.4 1.1-1.9 2.5-1.2s2.5 2.4 2.5 3.8V86z"></path><path fill="#39C" d="M37.5 73.8c-1.4-.7-2.5-.2-2.5 1.2v8.5l2 1 1 .5 2 1v-8.5c0-1.4-1.1-3.1-2.5-3.7zM36 75.5c0-.7.4-1 1-.9v2.9l-1-.5v-1.5zm0 2.5 1 .5v2l-1-.5v-2zm0 5v-2l1 .5v2l-1-.5zm3 1.5-1-.5v-2l1 .5v2zm0-3-1-.5v-2l1 .5v2zm0-3-1-.5v-2.9c.6.5 1 1.3 1 1.9v1.5z"></path><path d="M37.5 73.8c-.2-.1-.4-.2-.6-.2 1.2.7 2.1 2.1 2.1 3.3v7.4l-4-2v1l5 2.5v-8.2c0-1.5-1.1-3.2-2.5-3.8z" opacity=".4"></path><path fill="#FFF" d="M41 87.5 34 84v-1l7 3.5z" opacity=".5"></path><path fill="#7FADB9" d="m32 82-5-2.5V71c0-1.4 1.1-1.9 2.5-1.2s2.5 2.4 2.5 3.8V82z"></path><path fill="#39C" d="M29.5 69.7c-1.4-.6-2.5-.1-2.5 1.3v8.5l2 1 1 .5 2 1v-8.5c0-1.4-1.1-3.1-2.5-3.8zM28 71.5c0-.7.4-1 1-.9v2.9l-1-.5v-1.5zm0 2.5 1 .5v2l-1-.5v-2zm0 5v-2l1 .5v2l-1-.5zm3 1.5-1-.5v-2l1 .5v2zm0-3-1-.5v-2l1 .5v2zm0-3-1-.5v-2.9c.6.5 1 1.3 1 1.9v1.5z"></path><path d="M29.5 69.7c-.2-.1-.4-.2-.6-.2 1.2.7 2.1 2.1 2.1 3.3v7.4l-4-2v1l5 2.5v-8.2c0-1.4-1.1-3.1-2.5-3.8z" opacity=".4"></path><path fill="#FFF" d="M33 83.5 26 80v-1l7 3.5z" opacity=".5"></path><path fill="#7FADB9" d="M21 76.5 16 74v-8.5c0-1.4 1.1-1.9 2.5-1.2s2.5 2.4 2.5 3.8v8.4z"></path><path fill="#39C" d="M18.5 64.2c-1.4-.7-2.5-.1-2.5 1.2V74l2 1 1 .5 2 1V68c0-1.4-1.1-3.1-2.5-3.8zM17 66c0-.7.4-1 1-.9V68l-1-.5V66zm0 2.5 1 .5v2l-1-.5v-2zm0 5v-2l1 .5v2l-1-.5zm3 1.5-1-.5v-2l1 .5v2zm0-3-1-.5v-2l1 .5v2zm0-3-1-.5v-2.9c.6.5 1 1.3 1 1.9V69z"></path><path d="M18.5 64.2c-.2-.1-.4-.2-.6-.2 1.2.7 2.1 2.1 2.1 3.3v7.4l-4-2v1l5 2.5V68c0-1.4-1.1-3.1-2.5-3.8z" opacity=".4"></path><path fill="#FFF" d="m22 78-7-3.5v-1l7 3.5z" opacity=".5"></path><path fill="#7FADB9" d="M13 72.5 8 70v-8.5c0-1.4 1.1-1.9 2.5-1.2s2.5 2.4 2.5 3.8v8.4z"></path><path fill="#39C" d="M10.5 60.2c-1.4-.6-2.5-.1-2.5 1.3V70l2 1 1 .5 2 1V64c0-1.4-1.1-3.1-2.5-3.8zM9 62c0-.7.4-1 1-.9V64l-1-.5V62zm0 2.5 1 .5v2l-1-.5v-2zm0 5v-2l1 .5v2l-1-.5zm3 1.5-1-.5v-2l1 .5v2zm0-3-1-.5v-2l1 .5v2zm0-3-1-.5v-2.9c.6.5 1 1.3 1 1.9V65z"></path><path d="M10.5 60.2c-.2-.1-.4-.2-.6-.2 1.2.7 2.1 2.1 2.1 3.3v7.4l-4-2v1l5 2.5V64c0-1.4-1.1-3.1-2.5-3.8z" opacity=".4"></path><path fill="#FFF" d="m14 74-7-3.5v-1l7 3.5z" opacity=".5"></path><path fill="#7FADB9" d="M59 81.5 54 79v-8.5c0-1.4 1.1-1.9 2.5-1.2s2.5 2.4 2.5 3.8v8.4z"></path><path fill="#39C" d="M56.5 69.3c-1.4-.7-2.5-.1-2.5 1.2V79l2 1 1 .5 2 1V73c0-1.4-1.1-3.1-2.5-3.7zM55 71c0-.7.4-1 1-.9V73l-1-.5V71zm0 2.5 1 .5v2l-1-.5v-2zm0 5v-2l1 .5v2l-1-.5zm3 1.5-1-.5v-2l1 .5v2zm0-3-1-.5v-2l1 .5v2zm0-3-1-.5v-2.9c.6.5 1 1.3 1 1.9V74z"></path><path d="M56.5 69.3c-.2-.1-.4-.2-.6-.2 1.2.7 2.1 2.1 2.1 3.3v7.4l-4-2v1l5 2.5V73c0-1.4-1.1-3.1-2.5-3.7z" opacity=".4"></path><path fill="#FFF" d="m60 83-7-3.5v-1l7 3.5z" opacity=".5"></path><path fill="#7FADB9" d="M51 77.5 46 75v-8.5c0-1.4 1.1-1.9 2.5-1.2s2.5 2.4 2.5 3.8v8.4z"></path><path fill="#39C" d="M48.5 65.3c-1.4-.7-2.5-.1-2.5 1.2V75l2 1 1 .5 2 1V69c0-1.4-1.1-3.1-2.5-3.7zM47 67c0-.7.4-1 1-.9V69l-1-.5V67zm0 2.5 1 .5v2l-1-.5v-2zm0 5v-2l1 .5v2l-1-.5zm3 1.5-1-.5v-2l1 .5v2zm0-3-1-.5v-2l1 .5v2zm0-3-1-.5v-2.9c.6.5 1 1.3 1 1.9V70z"></path><path d="M48.5 65.3c-.2-.1-.4-.2-.6-.2 1.2.7 2.1 2.1 2.1 3.3v7.4l-4-2v1l5 2.5V69c0-1.4-1.1-3.1-2.5-3.7z" opacity=".4"></path><path fill="#FFF" d="m52 79-7-3.5v-1l7 3.5z" opacity=".5"></path><path fill="#7FADB9" d="m40 72-5-2.5V61c0-1.4 1.1-1.9 2.5-1.2s2.5 2.4 2.5 3.8V72z"></path><path fill="#39C" d="M37.5 59.8c-1.4-.7-2.5-.2-2.5 1.2v8.5l2 1 1 .5 2 1v-8.5c0-1.4-1.1-3.1-2.5-3.7zM36 61.5c0-.7.4-1 1-.9v2.9l-1-.5v-1.5zm0 2.5 1 .5v2l-1-.5v-2zm0 5v-2l1 .5v2l-1-.5zm3 1.5-1-.5v-2l1 .5v2zm0-3-1-.5v-2l1 .5v2zm0-3-1-.5v-2.9c.6.5 1 1.3 1 1.9v1.5z"></path><path d="M37.5 59.8c-.2-.1-.4-.2-.6-.2 1.2.7 2.1 2.1 2.1 3.3v7.4l-4-2v1l5 2.5v-8.2c0-1.5-1.1-3.2-2.5-3.8z" opacity=".4"></path><path fill="#FFF" d="M41 73.5 34 70v-1l7 3.5z" opacity=".5"></path><path fill="#7FADB9" d="m32 68-5-2.5V57c0-1.4 1.1-1.9 2.5-1.2s2.5 2.4 2.5 3.8V68z"></path><path fill="#39C" d="M29.5 55.7c-1.4-.6-2.5-.1-2.5 1.3v8.5l2 1 1 .5 2 1v-8.5c0-1.4-1.1-3.1-2.5-3.8zM28 57.5c0-.7.4-1 1-.9v2.9l-1-.5v-1.5zm0 2.5 1 .5v2l-1-.5v-2zm0 5v-2l1 .5v2l-1-.5zm3 1.5-1-.5v-2l1 .5v2zm0-3-1-.5v-2l1 .5v2zm0-3-1-.5v-2.9c.6.5 1 1.3 1 1.9v1.5z"></path><path d="M29.5 55.7c-.2-.1-.4-.2-.6-.2 1.2.7 2.1 2.1 2.1 3.3v7.4l-4-2v1l5 2.5v-8.2c0-1.4-1.1-3.1-2.5-3.8z" opacity=".4"></path><path fill="#FFF" d="M33 69.5 26 66v-1l7 3.5z" opacity=".5"></path><path fill="#7FADB9" d="M21 62.5 16 60v-8.5c0-1.4 1.1-1.9 2.5-1.2s2.5 2.4 2.5 3.8v8.4z"></path><path fill="#39C" d="M18.5 50.2c-1.4-.7-2.5-.1-2.5 1.2V60l2 1 1 .5 2 1V54c0-1.4-1.1-3.1-2.5-3.8zM17 52c0-.7.4-1 1-.9V54l-1-.5V52zm0 2.5 1 .5v2l-1-.5v-2zm0 5v-2l1 .5v2l-1-.5zm3 1.5-1-.5v-2l1 .5v2zm0-3-1-.5v-2l1 .5v2zm0-3-1-.5v-2.9c.6.5 1 1.3 1 1.9V55z"></path><path d="M18.5 50.2c-.2-.1-.4-.2-.6-.2 1.2.7 2.1 2.1 2.1 3.3v7.4l-4-2v1l5 2.5V54c0-1.4-1.1-3.1-2.5-3.8z" opacity=".4"></path><path fill="#FFF" d="m22 64-7-3.5v-1l7 3.5z" opacity=".5"></path><path fill="#7FADB9" d="M13 58.5 8 56v-8.5c0-1.4 1.1-1.9 2.5-1.2s2.5 2.4 2.5 3.8v8.4z"></path><path fill="#39C" d="M10.5 46.2c-1.4-.6-2.5-.1-2.5 1.3V56l2 1 1 .5 2 1V50c0-1.4-1.1-3.1-2.5-3.8zM9 48c0-.7.4-1 1-.9V50l-1-.5V48zm0 2.5 1 .5v2l-1-.5v-2zm0 5v-2l1 .5v2l-1-.5zm3 1.5-1-.5v-2l1 .5v2zm0-3-1-.5v-2l1 .5v2zm0-3-1-.5v-2.9c.6.5 1 1.3 1 1.9V51z"></path><path d="M10.5 46.2c-.2-.1-.4-.2-.6-.2 1.2.7 2.1 2.1 2.1 3.3v7.4l-4-2v1l5 2.5V50c0-1.4-1.1-3.1-2.5-3.8z" opacity=".4"></path><path fill="#FFF" d="m14 60-7-3.5v-1l7 3.5z" opacity=".5"></path><path d="m3 101 61 31v-1L3 100z" opacity=".15"></path><path fill="#FFF" d="m3 100 61 31v-1L3 99z" opacity=".5"></path><path fill="#7FADB9" d="m59 125.5-5-2.5v-8.5c0-1.4 1.1-1.9 2.5-1.2s2.5 2.4 2.5 3.8v8.4z"></path><path fill="#39C" d="M56.5 113.3c-1.4-.7-2.5-.1-2.5 1.2v8.5l2 1 1 .5 2 1V117c0-1.4-1.1-3.1-2.5-3.7zM55 115c0-.7.4-1 1-.9v2.9l-1-.5V115zm0 2.5 1 .5v2l-1-.5v-2zm0 5v-2l1 .5v2l-1-.5zm3 1.5-1-.5v-2l1 .5v2zm0-3-1-.5v-2l1 .5v2zm0-3-1-.5v-2.9c.6.5 1 1.3 1 1.9v1.5z"></path><path d="M56.5 113.3c-.2-.1-.4-.2-.6-.2 1.2.7 2.1 2.1 2.1 3.3v7.4l-4-2v1l5 2.5V117c0-1.4-1.1-3.1-2.5-3.7z" opacity=".4"></path><path fill="#FFF" d="m60 127-7-3.5v-1l7 3.5z" opacity=".5"></path><path fill="#7FADB9" d="m51 121.5-5-2.5v-8.5c0-1.4 1.1-1.9 2.5-1.2s2.5 2.4 2.5 3.8v8.4z"></path><path fill="#39C" d="M48.5 109.3c-1.4-.7-2.5-.1-2.5 1.2v8.5l2 1 1 .5 2 1V113c0-1.4-1.1-3.1-2.5-3.7zM47 111c0-.7.4-1 1-.9v2.9l-1-.5V111zm0 2.5 1 .5v2l-1-.5v-2zm0 5v-2l1 .5v2l-1-.5zm3 1.5-1-.5v-2l1 .5v2zm0-3-1-.5v-2l1 .5v2zm0-3-1-.5v-2.9c.6.5 1 1.3 1 1.9v1.5z"></path><path d="M48.5 109.3c-.2-.1-.4-.2-.6-.2 1.2.7 2.1 2.1 2.1 3.3v7.4l-4-2v1l5 2.5V113c0-1.4-1.1-3.1-2.5-3.7z" opacity=".4"></path><path fill="#FFF" d="m52 123-7-3.5v-1l7 3.5z" opacity=".5"></path><path fill="#7FADB9" d="m40 116-5-2.5V105c0-1.4 1.1-1.9 2.5-1.2s2.5 2.4 2.5 3.8v8.4z"></path><path fill="#39C" d="M37.5 103.8c-1.4-.7-2.5-.1-2.5 1.2v8.5l2 1 1 .5 2 1v-8.5c0-1.4-1.1-3.1-2.5-3.7zm-1.5 1.7c0-.7.4-1 1-.9v2.9l-1-.5v-1.5zm0 2.5 1 .5v2l-1-.5v-2zm0 5v-2l1 .5v2l-1-.5zm3 1.5-1-.5v-2l1 .5v2zm0-3-1-.5v-2l1 .5v2zm0-3-1-.5v-2.9c.6.5 1 1.3 1 1.9v1.5z"></path><path d="M37.5 103.8c-.2-.1-.4-.2-.6-.2 1.2.7 2.1 2.1 2.1 3.3v7.4l-4-2v1l5 2.5v-8.2c0-1.5-1.1-3.2-2.5-3.8z" opacity=".4"></path><path fill="#FFF" d="m41 117.5-7-3.5v-1l7 3.5z" opacity=".5"></path><path fill="#7FADB9" d="m32 112-5-2.5V101c0-1.4 1.1-1.9 2.5-1.2s2.5 2.4 2.5 3.8v8.4z"></path><path fill="#39C" d="M29.5 99.7c-1.4-.7-2.5-.1-2.5 1.2v8.5l2 1 1 .5 2 1v-8.5c0-1.3-1.1-3-2.5-3.7zm-1.5 1.8c0-.7.4-1 1-.9v2.9l-1-.5v-1.5zm0 2.5 1 .5v2l-1-.5v-2zm0 5v-2l1 .5v2l-1-.5zm3 1.5-1-.5v-2l1 .5v2zm0-3-1-.5v-2l1 .5v2zm0-3-1-.5v-2.9c.6.5 1 1.3 1 1.9v1.5z"></path><path d="M29.5 99.7c-.2-.1-.4-.2-.6-.2 1.2.7 2.1 2.1 2.1 3.3v7.4l-4-2v1l5 2.5v-8.2c0-1.4-1.1-3.1-2.5-3.8z" opacity=".4"></path><path fill="#FFF" d="m33 113.5-7-3.5v-1l7 3.5z" opacity=".5"></path><path fill="#7FADB9" d="m21 106.5-5-2.5v-8.5c0-1.4 1.1-1.9 2.5-1.2s2.5 2.4 2.5 3.8v8.4z"></path><path fill="#39C" d="M18.5 94.2c-1.4-.7-2.5-.1-2.5 1.2v8.5l2 1 1 .5 2 1V98c0-1.4-1.1-3.1-2.5-3.8zM17 96c0-.7.4-1 1-.9V98l-1-.5V96zm0 2.5 1 .5v2l-1-.5v-2zm0 5v-2l1 .5v2l-1-.5zm3 1.5-1-.5v-2l1 .5v2zm0-3-1-.5v-2l1 .5v2zm0-3-1-.5v-2.9c.6.5 1 1.3 1 1.9V99z"></path><path d="M18.5 94.2c-.2-.1-.4-.2-.6-.2 1.2.7 2.1 2.1 2.1 3.3v7.4l-4-2v1l5 2.5V98c0-1.4-1.1-3.1-2.5-3.8z" opacity=".4"></path><path fill="#FFF" d="m22 108-7-3.5v-1l7 3.5z" opacity=".5"></path><path fill="#7FADB9" d="M13 102.5 8 100v-8.5c0-1.4 1.1-1.9 2.5-1.2s2.5 2.4 2.5 3.8v8.4z"></path><path fill="#39C" d="M10.5 90.2c-1.4-.6-2.5-.1-2.5 1.3v8.5l2 1 1 .5 2 1V94c0-1.4-1.1-3.1-2.5-3.8zM9 92c0-.7.4-1 1-.9V94l-1-.5V92zm0 2.5 1 .5v2l-1-.5v-2zm0 5v-2l1 .5v2l-1-.5zm3 1.5-1-.5v-2l1 .5v2zm0-3-1-.5v-2l1 .5v2zm0-3-1-.5v-2.9c.6.5 1 1.3 1 1.9V95z"></path><path d="M10.5 90.2c-.2-.1-.4-.2-.6-.2 1.2.7 2.1 2.1 2.1 3.3v7.4l-4-2v1l5 2.5V94c0-1.4-1.1-3.1-2.5-3.8z" opacity=".4"></path><path fill="#FFF" d="m14 104-7-3.5v-1l7 3.5z" opacity=".5"></path><path fill="#7FADB9" d="m59 111.5-5-2.5v-8.5c0-1.4 1.1-1.9 2.5-1.2s2.5 2.4 2.5 3.8v8.4z"></path><path fill="#39C" d="M56.5 99.3c-1.4-.7-2.5-.1-2.5 1.2v8.5l2 1 1 .5 2 1V103c0-1.4-1.1-3.1-2.5-3.7zM55 101c0-.7.4-1 1-.9v2.9l-1-.5V101zm0 2.5 1 .5v2l-1-.5v-2zm0 5v-2l1 .5v2l-1-.5zm3 1.5-1-.5v-2l1 .5v2zm0-3-1-.5v-2l1 .5v2zm0-3-1-.5v-2.9c.6.5 1 1.3 1 1.9v1.5z"></path><path d="M56.5 99.3c-.2-.1-.4-.2-.6-.2 1.2.7 2.1 2.1 2.1 3.3v7.4l-4-2v1l5 2.5V103c0-1.4-1.1-3.1-2.5-3.7z" opacity=".4"></path><path fill="#FFF" d="m60 113-7-3.5v-1l7 3.5z" opacity=".5"></path><path fill="#7FADB9" d="m51 107.5-5-2.5v-8.5c0-1.4 1.1-1.9 2.5-1.2s2.5 2.4 2.5 3.8v8.4z"></path><path fill="#39C" d="M48.5 95.3c-1.4-.7-2.5-.1-2.5 1.2v8.5l2 1 1 .5 2 1V99c0-1.4-1.1-3.1-2.5-3.7zM47 97c0-.7.4-1 1-.9V99l-1-.5V97zm0 2.5 1 .5v2l-1-.5v-2zm0 5v-2l1 .5v2l-1-.5zm3 1.5-1-.5v-2l1 .5v2zm0-3-1-.5v-2l1 .5v2zm0-3-1-.5v-2.9c.6.5 1 1.3 1 1.9v1.5z"></path><path d="M48.5 95.3c-.2-.1-.4-.2-.6-.2 1.2.7 2.1 2.1 2.1 3.3v7.4l-4-2v1l5 2.5V99c0-1.4-1.1-3.1-2.5-3.7z" opacity=".4"></path><path fill="#FFF" d="m52 109-7-3.5v-1l7 3.5z" opacity=".5"></path><path fill="#7FADB9" d="m40 102-5-2.5V91c0-1.4 1.1-1.9 2.5-1.2s2.5 2.4 2.5 3.8v8.4z"></path><path fill="#39C" d="M37.5 89.8c-1.4-.7-2.5-.2-2.5 1.2v8.5l2 1 1 .5 2 1v-8.5c0-1.4-1.1-3.1-2.5-3.7zM36 91.5c0-.7.4-1 1-.9v2.9l-1-.5v-1.5zm0 2.5 1 .5v2l-1-.5v-2zm0 5v-2l1 .5v2l-1-.5zm3 1.5-1-.5v-2l1 .5v2zm0-3-1-.5v-2l1 .5v2zm0-3-1-.5v-2.9c.6.5 1 1.3 1 1.9v1.5z"></path><path d="M37.5 89.8c-.2-.1-.4-.2-.6-.2 1.2.7 2.1 2.1 2.1 3.3v7.4l-4-2v1l5 2.5v-8.2c0-1.5-1.1-3.2-2.5-3.8z" opacity=".4"></path><path fill="#FFF" d="m41 103.5-7-3.5v-1l7 3.5z" opacity=".5"></path><path fill="#7FADB9" d="m32 98-5-2.5V87c0-1.4 1.1-1.9 2.5-1.2s2.5 2.4 2.5 3.8V98z"></path><path fill="#39C" d="M29.5 85.7c-1.4-.6-2.5-.1-2.5 1.3v8.5l2 1 1 .5 2 1v-8.5c0-1.4-1.1-3.1-2.5-3.8zM28 87.5c0-.7.4-1 1-.9v2.9l-1-.5v-1.5zm0 2.5 1 .5v2l-1-.5v-2zm0 5v-2l1 .5v2l-1-.5zm3 1.5-1-.5v-2l1 .5v2zm0-3-1-.5v-2l1 .5v2zm0-3-1-.5v-2.9c.6.5 1 1.3 1 1.9v1.5z"></path><path d="M29.5 85.7c-.2-.1-.4-.2-.6-.2 1.2.7 2.1 2.1 2.1 3.3v7.4l-4-2v1l5 2.5v-8.2c0-1.4-1.1-3.1-2.5-3.8z" opacity=".4"></path><path fill="#FFF" d="M33 99.5 26 96v-1l7 3.5z" opacity=".5"></path><path fill="#7FADB9" d="M21 92.5 16 90v-8.5c0-1.4 1.1-1.9 2.5-1.2s2.5 2.4 2.5 3.8v8.4z"></path><path fill="#39C" d="M18.5 80.2c-1.4-.7-2.5-.1-2.5 1.2V90l2 1 1 .5 2 1V84c0-1.4-1.1-3.1-2.5-3.8zM17 82c0-.7.4-1 1-.9V84l-1-.5V82zm0 2.5 1 .5v2l-1-.5v-2zm0 5v-2l1 .5v2l-1-.5zm3 1.5-1-.5v-2l1 .5v2zm0-3-1-.5v-2l1 .5v2zm0-3-1-.5v-2.9c.6.5 1 1.3 1 1.9V85z"></path><path d="M18.5 80.2c-.2-.1-.4-.2-.6-.2 1.2.7 2.1 2.1 2.1 3.3v7.4l-4-2v1l5 2.5V84c0-1.4-1.1-3.1-2.5-3.8z" opacity=".4"></path><path fill="#FFF" d="m22 94-7-3.5v-1l7 3.5z" opacity=".5"></path><path fill="#7FADB9" d="M13 88.5 8 86v-8.5c0-1.4 1.1-1.9 2.5-1.2s2.5 2.4 2.5 3.8v8.4z"></path><path fill="#39C" d="M10.5 76.2c-1.4-.6-2.5-.1-2.5 1.3V86l2 1 1 .5 2 1V80c0-1.4-1.1-3.1-2.5-3.8zM9 78c0-.7.4-1 1-.9V80l-1-.5V78zm0 2.5 1 .5v2l-1-.5v-2zm0 5v-2l1 .5v2l-1-.5zm3 1.5-1-.5v-2l1 .5v2zm0-3-1-.5v-2l1 .5v2zm0-3-1-.5v-2.9c.6.5 1 1.3 1 1.9V81z"></path><path d="M10.5 76.2c-.2-.1-.4-.2-.6-.2 1.2.7 2.1 2.1 2.1 3.3v7.4l-4-2v1l5 2.5V80c0-1.4-1.1-3.1-2.5-3.8z" opacity=".4"></path><path fill="#FFF" d="m14 90-7-3.5v-1l7 3.5z" opacity=".5"></path><path d="m3 101 61 31V68L3 37.5z" opacity=".06"></path><path fill="#F8EBCB" d="m64 68 61-30.5L64 7 3 37.5z"></path><path fill="#2D3134" d="M64 1 3 37.5 64 68l61-30.5z"></path><path d="M64 42 27.2 23 3 37.5 64 68z" opacity=".06"></path><path d="M64 42v26l61-30.5L100.8 23z" opacity=".39"></path></svg>