<svg xmlns="http://www.w3.org/2000/svg" width="32" height="32" id="building"><path style="isolation:auto;mix-blend-mode:normal" fill="#576d7e" fill-rule="evenodd" d="M11 7v3H8v7H3v15h26V16h-3v-5h-6V7h-9z" color="#000" overflow="visible" transform="translate(.001)"></path><path fill="#cad1d8" d="M7.657 1a2.031 2.031 0 0 0-1.643.84 1.25 1.25 0 0 0-.7-.215 1.25 1.25 0 0 0-1.25 1.25 1.25 1.25 0 0 0 .012.168.781.781 0 0 0-.481-.168.781.781 0 0 0-.766.625h-.016c-.692 0-1.25.558-1.25 1.25 0 .693.558 1.25 1.25 1.25h6.25A1.247 1.247 0 0 0 9.6 3.624a2.031 2.031 0 0 0 .09-.593 2.031 2.031 0 0 0-2.032-2.03z"></path><path style="isolation:auto;mix-blend-mode:normal" fill="#60c5b8" fill-rule="evenodd" d="M7 1035.862h6v16H7z" color="#000" overflow="visible" transform="translate(.001 -1020.362)"></path><path fill="#25b39e" fill-rule="evenodd" color="#000" overflow="visible" style="isolation:auto;mix-blend-mode:normal" d="M6 1034.362h8v2H6z" transform="translate(.001 -1020.362)"></path><path fill="none" stroke="#4bbfeb" d="M22.001 12V9"></path><path fill="none" stroke="#34485c" d="M8.501 17.5h3m-3 2h3m-3 2h3m-3 2h3m-3 2h3m-3 2h3m-3 2h3"></path><path fill="#cad1d8" d="M28.617 1.572a1.393 1.393 0 0 0-1.127.576.857.857 0 0 0-.48-.148.857.857 0 0 0-.857.857.857.857 0 0 0 .009.115.536.536 0 0 0-.33-.115.536.536 0 0 0-.525.429h-.011a.855.855 0 0 0-.857.857c0 .475.382.857.857.857h4.285a.855.855 0 0 0 .368-1.63 1.393 1.393 0 0 0 .06-.406 1.393 1.393 0 0 0-1.392-1.392z"></path><path fill="none" stroke="#cad1d8" d="M5.939 8h3m-4 0h-1m-1 0h-1m13-4.5h1m1 0h1m1 0h1m-2-2h4m1 0h1"></path><path style="isolation:auto;mix-blend-mode:normal" fill="#4bbfeb" fill-rule="evenodd" d="M20.062 1034.619v-2.257h4v2.256" color="#000" overflow="visible" transform="translate(.001 -1020.362)"></path><path fill="#78c8f0" fill-rule="evenodd" color="#000" overflow="visible" style="isolation:auto;mix-blend-mode:normal" d="M19 1034.362h6v17.5h-6z" transform="translate(.001 -1020.362)"></path><path fill="#4bbfeb" fill-rule="evenodd" stroke="#34485c" d="M21.001 15v1m0 1v1m0 1v1m0 1v1m0 1v1m0 1v1m0 1v1m0 1v1m2-15v1m0 1v1m0 1v1m0 1v1m0 1v1m0 1v1m0 1v1m0 1v1"></path><path fill="none" stroke="#2b4255" d="M1.001 31.5h29.875"></path></svg>