<svg xmlns="http://www.w3.org/2000/svg" viewBox="0 0 128 136" id="building"><path fill="#CC291F" d="m120 92 8 4v-9l-8-4z"></path><path d="m120 92 8 4v-9l-8-4z" opacity=".06"></path><path fill="#E5E5E5" d="m120 92-16 8V84l16-8z"></path><path fill="#FFF" d="m116 94-8 4V84l8-4z"></path><path fill="#39C" d="m115 93.5-6 3v-12l6-3z"></path><path d="m115 84.5-6 3v-3l6-3z" opacity=".15"></path><path d="m109 84.5 6-3v1l-6 3z" opacity=".15"></path><path d="m120 92-16 8V84l16-8z" opacity=".39"></path><path fill="#CC291F" d="m128 96-16 8v-9l16-8z"></path><path d="m120 85-8 4-8-4v-1l16-1z" opacity=".5"></path><path fill="#E5E5E5" d="m104 84 8 4V72l-8-4z"></path><path d="m104 84 8 4V72l-8-4z" opacity=".06"></path><path fill="#E5E5E5" d="m88 108 8 4V96l-8-4z"></path><path d="m88 108 8 4V96l-8-4z" opacity=".06"></path><path fill="#E5E5E5" d="m88 108-16 8v-16l16-8z"></path><path fill="#FFF" d="m84 110-8 4v-14l8-4z"></path><path fill="#39C" d="m83 109.5-6 3v-12l6-3z"></path><path d="m83 100.5-6 3v-3l6-3z" opacity=".15"></path><path d="m77 100.5 6-3v1l-6 3z" opacity=".15"></path><path d="m88 108-16 8v-16l16-8z" opacity=".39"></path><path fill="#CC291F" d="m96 112-16 8v-9l16-8z"></path><path d="m88 101-8 4-8-4v-1l16-1z" opacity=".5"></path><path fill="#E5E5E5" d="m104 84-16 8V76l16-8z"></path><path fill="#FFF" d="m100 86-8 4V76l8-4z"></path><path fill="#39C" d="m99 85.5-6 3v-12l6-3z"></path><path d="m99 76.5-6 3v-3l6-3z" opacity=".15"></path><path d="m93 76.5 6-3v1l-6 3z" opacity=".15"></path><path d="m104 84-16 8V76l16-8z" opacity=".39"></path><path fill="#CC291F" d="m112 88-16 8v-9l16-8z"></path><path d="m104 77-8 4-8-4v-1l16-1z" opacity=".5"></path><path fill="#E5E5E5" d="m72 100 8 4V88l-8-4z"></path><path d="m72 100 8 4V88l-8-4z" opacity=".06"></path><path fill="#E5E5E5" d="m56 124 8 4v-16l-8-4z"></path><path d="m56 124 8 4v-16l-8-4z" opacity=".06"></path><path fill="#E5E5E5" d="m56 124-16 8v-16l16-8z"></path><path fill="#FFF" d="m52 126-8 4v-14l8-4z"></path><path fill="#39C" d="m51 125.5-6 3v-12l6-3z"></path><path d="m51 116.5-6 3v-3l6-3z" opacity=".15"></path><path d="m45 116.5 6-3v1l-6 3z" opacity=".15"></path><path d="m56 124-16 8v-16l16-8z" opacity=".39"></path><path fill="#CC291F" d="m40 132 8 4v-9l-8-4zM64 128l-16 8v-9l16-8z"></path><path d="m56 117-8 4-8-4v-1l16-1z" opacity=".5"></path><path fill="#E5E5E5" d="m72 100-16 8V92l16-8z"></path><path fill="#FFF" d="m68 102-8 4V92l8-4z"></path><path fill="#39C" d="m67 101.5-6 3v-12l6-3z"></path><path d="m67 92.5-6 3v-3l6-3z" opacity=".15"></path><path d="m61 92.5 6-3v1l-6 3z" opacity=".15"></path><path d="m72 100-16 8V92l16-8z" opacity=".39"></path><path fill="#CC291F" d="m80 104-16 8v-9l16-8z"></path><path d="m72 93-8 4-8-4v-1l16-1z" opacity=".5"></path><path fill="#CC291F" d="m120 60 8 4v-9l-8-4z"></path><path d="m120 60 8 4v-9l-8-4z" opacity=".06"></path><path fill="#E5E5E5" d="m120 60-16 8V52l16-8z"></path><path fill="#FFF" d="m116 62-8 4V52l8-4z"></path><path fill="#39C" d="m115 61.5-6 3v-12l6-3z"></path><path d="m115 52.5-6 3v-3l6-3z" opacity=".15"></path><path d="m109 52.5 6-3v1l-6 3z" opacity=".15"></path><path d="m120 60-16 8V52l16-8z" opacity=".39"></path><path fill="#CC291F" d="m128 64-16 8v-9l16-8z"></path><path d="m120 53-8 4-8-4v-1l16-1z" opacity=".5"></path><path fill="#E5E5E5" d="m104 52 8 4V40l-8-4z"></path><path d="m104 52 8 4V40l-8-4z" opacity=".06"></path><path fill="#E5E5E5" d="m88 76 8 4V64l-8-4z"></path><path d="m88 76 8 4V64l-8-4z" opacity=".06"></path><path fill="#E5E5E5" d="m88 76-16 8V68l16-8z"></path><path fill="#FFF" d="m84 78-8 4V68l8-4z"></path><path fill="#39C" d="m83 77.5-6 3v-12l6-3z"></path><path d="m83 68.5-6 3v-3l6-3z" opacity=".15"></path><path d="m77 68.5 6-3v1l-6 3z" opacity=".15"></path><path d="m88 76-16 8V68l16-8z" opacity=".39"></path><path fill="#CC291F" d="m96 80-16 8v-9l16-8z"></path><path d="m88 69-8 4-8-4v-1l16-1z" opacity=".5"></path><path fill="#E5E5E5" d="m104 52-16 8V44l16-8z"></path><path fill="#FFF" d="m100 54-8 4V44l8-4z"></path><path fill="#39C" d="m99 53.5-6 3v-12l6-3z"></path><path d="m99 44.5-6 3v-3l6-3z" opacity=".15"></path><path d="m93 44.5 6-3v1l-6 3z" opacity=".15"></path><path d="m104 52-16 8V44l16-8z" opacity=".39"></path><path fill="#CC291F" d="m112 56-16 8v-9l16-8z"></path><path d="m104 45-8 4-8-4v-1l16-1z" opacity=".5"></path><path fill="#E5E5E5" d="m72 68 8 4V56l-8-4z"></path><path d="m72 68 8 4V56l-8-4z" opacity=".06"></path><path fill="#E5E5E5" d="m56 92 8 4V80l-8-4z"></path><path d="m56 92 8 4V80l-8-4z" opacity=".06"></path><path fill="#E5E5E5" d="m56 92-16 8V84l16-8z"></path><path fill="#FFF" d="m52 94-8 4V84l8-4z"></path><path fill="#39C" d="m51 93.5-6 3v-12l6-3z"></path><path d="m51 84.5-6 3v-3l6-3z" opacity=".15"></path><path d="m45 84.5 6-3v1l-6 3z" opacity=".15"></path><path d="m56 92-16 8V84l16-8z" opacity=".39"></path><path fill="#CC291F" d="m40 100 8 4v-9l-8-4zM64 96l-16 8v-9l16-8z"></path><path d="m56 85-8 4-8-4v-1l16-1z" opacity=".5"></path><path fill="#E5E5E5" d="m72 68-16 8V60l16-8z"></path><path fill="#FFF" d="m68 70-8 4V60l8-4z"></path><path fill="#39C" d="m67 69.5-6 3v-12l6-3z"></path><path d="m67 60.5-6 3v-3l6-3z" opacity=".15"></path><path d="m61 60.5 6-3v1l-6 3z" opacity=".15"></path><path d="m72 68-16 8V60l16-8z" opacity=".39"></path><path fill="#CC291F" d="m80 72-16 8v-9l16-8z"></path><path d="m72 61-8 4-8-4v-1l16-1z" opacity=".5"></path><path fill="#CC291F" d="M16 72 0 80v-9l16-8z"></path><path d="M16 72 0 80v-9l16-8z" opacity=".39"></path><path fill="#CC291F" d="m0 80 8 4v-9l-8-4zM16 104l-16 8v-9l16-8z"></path><path d="m16 104-16 8v-9l16-8z" opacity=".39"></path><path fill="#CC291F" d="m0 112 8 4v-9l-8-4z"></path><g fill="#E5E5E5"><path d="M64 112V96l-16 8-8-4v16l8 4 16-8v16l16-8v-16zM0 96l8 4V84l-8-4z"></path><path d="M80 0 0 40v24l8 4V52l32 16v16l8 4 16-8v16l16-8v16l16-8v16l16-8V88l-16 8V80l-16 8V72l-16 8V64l16-8v16l16-8v16l16-8v16l16-8V64l-16 8V56l-16 8V48l16-8v16l16-8V24z"></path></g><path fill="#E5E5E5" d="m80 14-12 6v4l12 6 12-6v-4z"></path><path d="m92 24-12 6v-4l12-6z" opacity=".39"></path><path d="m68 24 12 6v-4l-12-6z" opacity=".06"></path><path fill="#E5E5E5" d="m48 30-12 6v4l12 6 12-6v-4z"></path><path d="m60 40-12 6v-4l12-6z" opacity=".39"></path><path d="m36 40 12 6v-4l-12-6z" opacity=".06"></path><path fill="#CC291F" d="m8 116 32 16V68L8 52z"></path><path d="M48 88V64L0 40v24l8 4v7l-8-4v25l8 4v7l-8-4v9l48 24v-9l-8-4v-7l8 4V95l-8-4v-7z" opacity=".06"></path><path fill="#FFF" d="m126 78-12 6V74l12-6z"></path><path fill="#39C" d="m125 77.5-10 5v-8l10-5z"></path><path fill="#FFF" d="M115 77.5h10l-10 5z" opacity=".15"></path><path fill="#FFF" d="m117 81.5 1-.5v-8l-1 .5zM122 79l1-.5v-8l-1 .5z" opacity=".5"></path><path d="m125 72.5-10 5v-3l10-5z" opacity=".15"></path><path d="m115 74.5 10-5v1l-10 5z" opacity=".15"></path><path fill="#FFF" d="m110 102-12 6V98l12-6z"></path><path fill="#39C" d="m109 101.5-10 5v-8l10-5z"></path><path fill="#FFF" d="M99 101.5h10l-10 5z" opacity=".15"></path><path fill="#FFF" d="m101 105.5 1-.5v-8l-1 .5zM106 103l1-.5v-8l-1 .5z" opacity=".5"></path><path d="m109 96.5-10 5v-3l10-5z" opacity=".15"></path><path d="m99 98.5 10-5v1l-10 5z" opacity=".15"></path><path fill="#FFF" d="m94 94-12 6V90l12-6z"></path><path fill="#39C" d="m93 93.5-10 5v-8l10-5z"></path><path fill="#FFF" d="M83 93.5h10l-10 5z" opacity=".15"></path><path fill="#FFF" d="m85 97.5 1-.5v-8l-1 .5zM90 95l1-.5v-8l-1 .5z" opacity=".5"></path><path d="m93 88.5-10 5v-3l10-5z" opacity=".15"></path><path d="m83 90.5 10-5v1l-10 5z" opacity=".15"></path><path fill="#FFF" d="m78 118-12 6v-10l12-6z"></path><path fill="#39C" d="m77 117.5-10 5v-8l10-5z"></path><path fill="#FFF" d="M67 117.5h10l-10 5z" opacity=".15"></path><path fill="#FFF" d="m69 121.5 1-.5v-8l-1 .5zM74 119l1-.5v-8l-1 .5z" opacity=".5"></path><path d="m77 112.5-10 5v-3l10-5z" opacity=".15"></path><path d="m67 114.5 10-5v1l-10 5z" opacity=".15"></path><path fill="#FFF" d="m62 110-12 6v-10l12-6z"></path><path fill="#39C" d="m61 109.5-10 5v-8l10-5z"></path><path fill="#FFF" d="M51 109.5h10l-10 5z" opacity=".15"></path><path fill="#FFF" d="m53 113.5 1-.5v-8l-1 .5zM58 111l1-.5v-8l-1 .5z" opacity=".5"></path><path d="m61 104.5-10 5v-3l10-5z" opacity=".15"></path><path d="m51 106.5 10-5v1l-10 5z" opacity=".15"></path><path fill="#FFF" d="m126 46-12 6V42l12-6z"></path><path fill="#39C" d="m125 45.5-10 5v-8l10-5z"></path><path fill="#FFF" d="M115 45.5h10l-10 5z" opacity=".15"></path><path fill="#FFF" d="m117 49.5 1-.5v-8l-1 .5zM122 47l1-.5v-8l-1 .5z" opacity=".5"></path><path d="m125 40.5-10 5v-3l10-5z" opacity=".15"></path><path d="m115 42.5 10-5v1l-10 5z" opacity=".15"></path><path fill="#FFF" d="m110 70-12 6V66l12-6z"></path><path fill="#39C" d="m109 69.5-10 5v-8l10-5z"></path><path fill="#FFF" d="M99 69.5h10l-10 5z" opacity=".15"></path><path fill="#FFF" d="m101 73.5 1-.5v-8l-1 .5zM106 71l1-.5v-8l-1 .5z" opacity=".5"></path><path d="m109 64.5-10 5v-3l10-5z" opacity=".15"></path><path d="m99 66.5 10-5v1l-10 5z" opacity=".15"></path><path fill="#FFF" d="m94 62-12 6V58l12-6z"></path><path fill="#39C" d="m93 61.5-10 5v-8l10-5z"></path><path fill="#FFF" d="M83 61.5h10l-10 5z" opacity=".15"></path><path fill="#FFF" d="m85 65.5 1-.5v-8l-1 .5zM90 63l1-.5v-8l-1 .5z" opacity=".5"></path><path d="m93 56.5-10 5v-3l10-5z" opacity=".15"></path><path d="m83 58.5 10-5v1l-10 5z" opacity=".15"></path><path fill="#FFF" d="m78 86-12 6V82l12-6z"></path><path fill="#39C" d="m77 85.5-10 5v-8l10-5z"></path><path fill="#FFF" d="M67 85.5h10l-10 5z" opacity=".15"></path><path fill="#FFF" d="m69 89.5 1-.5v-8l-1 .5zM74 87l1-.5v-8l-1 .5z" opacity=".5"></path><path d="m77 80.5-10 5v-3l10-5z" opacity=".15"></path><path d="m67 82.5 10-5v1l-10 5z" opacity=".15"></path><path fill="#FFF" d="m62 78-12 6V74l12-6z"></path><path fill="#39C" d="m61 77.5-10 5v-8l10-5z"></path><path fill="#FFF" d="M51 77.5h10l-10 5z" opacity=".15"></path><path fill="#FFF" d="m53 81.5 1-.5v-8l-1 .5zM58 79l1-.5v-8l-1 .5z" opacity=".5"></path><path d="m61 72.5-10 5v-3l10-5z" opacity=".15"></path><path d="m51 74.5 10-5v1l-10 5z" opacity=".15"></path><path d="M48 64v24l16-8v7l-16 8v25l16-8v7l-16 8v9l80-40v-9l-16 8v-7l16-8V55l-16 8v-7l16-8V24L48 64zm32-8v7l-16 8v-7l16-8zm0 16 16-8v7l-16 8v-7zM64 96l16-8v7l-16 8v-7zm32 7-16 8v-7l16-8v7zm16-24-16 8v-7l16-8v7zm0-32-16 8v-7l16-8v7z" opacity=".39"></path></svg>