<svg xmlns="http://www.w3.org/2000/svg" shape-rendering="geometricPrecision" text-rendering="geometricPrecision" image-rendering="optimizeQuality" fill-rule="evenodd" clip-rule="evenodd" viewBox="0 0 512 488.15"><path d="M304.73 467.72H175.8V16.29H424v238.4c5.55.52 10.98 1.38 16.3 2.56V14.31C440.3 6.44 433.85 0 425.99 0H173.82c-7.87 0-14.31 6.45-14.31 14.31v121.94H11.98C5.41 136.25 0 141.67 0 148.24v327.62c0 4.5 3.65 8.15 8.15 8.15l310.99-.07-2.1-2.05a133.83 133.83 0 0 1-12.31-14.17zm106.66-180.79c55.55 0 100.61 45.06 100.61 100.61s-45.06 100.61-100.61 100.61c-55.56 0-100.62-45.06-100.62-100.61s45.06-100.61 100.62-100.61zm52.97 90.41v20.39a7.58 7.58 0 0 1-7.56 7.56h-27.66v27.66a7.59 7.59 0 0 1-7.57 7.57h-20.38c-4.17-.03-7.55-3.4-7.55-7.57v-27.66h-27.68c-4.16-.01-7.54-3.4-7.55-7.56v-20.39c.02-4.16 3.39-7.54 7.55-7.55h27.68v-27.67c.01-4.16 3.39-7.53 7.55-7.55h20.38c4.17 0 7.55 3.38 7.57 7.55v27.67h27.66c4.16.01 7.54 3.38 7.56 7.55zM16.29 467.72V152.54h143.22v315.18H16.29zm332.62-198.1h-29.19l-.12.01h-.02l-.12.02h-.02l-.12.02h-.02l-.12.04h-.01l-.11.03h-.02l-.12.04h-.01l-.11.05h-.02c-1 .43-1.7 1.62-1.7 2.58v20.75c9.34-9.33 20.06-17.29 31.83-23.54zm-30.13-93.41c-1 .43-1.7 1.61-1.7 2.57v45.26c0 .97.7 2.15 1.7 2.58h.02l.11.05h.01l.12.04h.02l.11.03h.01l.12.04h.02l.12.02h.02l.12.02h.02l.12.01h.02l.12.01h53.6a2.8 2.8 0 0 0 2.79-2.8v-14.93l.03-.03v-30.3c0-1.21-.78-2.23-1.86-2.62l-.11-.04h-.02l-.11-.04h-.02l-.11-.03h-.02l-.12-.03h-.03l-.11-.02h-.17l-.12-.01h-53.62l-.12.01h-.16l-.12.02h-.02l-.12.03h-.02l-.12.03h-.01l-.11.04h-.02l-.12.04h-.01l-.11.05h-.02zm-40.87 187.04h-53.6c-1.32 0-2.79 1.46-2.79 2.79v45.26c0 1.33 1.26 2.8 2.79 2.8h53.6c1.02 0 1.93-.56 2.41-1.39-1.56-8.15-2.37-16.57-2.37-25.17 0-7.92.69-15.68 2.02-23.23-.59-.64-1.42-1.06-2.06-1.06zm0-93.63h-53.6c-1.32 0-2.79 1.46-2.79 2.79v45.26c0 1.33 1.26 2.79 2.79 2.79h53.6c1.54 0 2.79-1.25 2.79-2.79v-45.26c0-1.54-1.68-2.79-2.79-2.79zm0-93.63h-53.6c-1.32 0-2.79 1.47-2.79 2.79v45.26c0 1.33 1.26 2.8 2.79 2.8h53.6a2.8 2.8 0 0 0 2.79-2.8v-45.26c0-1.54-1.68-2.79-2.79-2.79zM120.05 321.17H55.48c-.72 0-1.36.55-1.36.99v26.53c0 .44.68.99 1.36.99h64.57c.69 0 1.37-.44 1.37-.99v-26.53c0-.54-.68-.99-1.37-.99zm267.5-269.44H212.26c-3.56 0-6.51 3-6.51 6.52v69.26c0 3.52 2.97 6.52 6.51 6.52h175.29c3.55 0 6.52-2.94 6.52-6.52V58.25c0-3.58-2.98-6.52-6.52-6.52zm-267.5 211.39H55.48c-.72 0-1.36.55-1.36.99v26.53c0 .44.68.99 1.36.99h64.57c.69 0 1.37-.45 1.37-.99v-26.53c0-.55-.68-.99-1.37-.99zm0-58.05H55.48c-.72 0-1.36.54-1.36.98v26.54c0 .43.68.98 1.36.98h64.57c.69 0 1.37-.44 1.37-.98v-26.54c0-.54-.68-.98-1.37-.98z"/></svg>