<svg xmlns="http://www.w3.org/2000/svg" width="32" height="32" id="building"><g color="#000" font-family="sans-serif" font-weight="400"><path fill="#f05542" fill-rule="evenodd" d="M151.143 466.484v6.67h1v-5.67h6.693v3.834h1v-4.834h-8.693z" overflow="visible" style="line-height:normal;text-indent:0;text-align:start;text-decoration-line:none;text-decoration-style:solid;text-decoration-color:#000;text-transform:none;block-progression:tb;isolation:auto;mix-blend-mode:normal" transform="translate(-139.268 -459.984)"></path><path fill="#4bbfeb" d="M146.861 460.484a.5.5 0 0 0-.21.051c-.6.054-1.131.328-1.551.754-.193-.07-.375-.18-.582-.18-.787 0-1.347.584-1.565 1.303-.054-.007-.097-.052-.152-.053a.5.5 0 0 0-.002 0c-.494 0-.878.327-1.09.754-.795.165-1.441.78-1.441 1.621 0 .961.789 1.75 1.75 1.75h6.25c.96 0 1.75-.789 1.75-1.75 0-.544-.296-.982-.688-1.302.023-.138.062-.274.063-.414a.5.5 0 0 0 0-.002c0-1.26-.982-2.2-2.19-2.389a.5.5 0 0 0-.342-.143zm0 1c.852 0 1.532.68 1.532 1.532 0 .151-.023.302-.067.447a.5.5 0 0 0 .264.598c.254.12.428.369.428.673 0 .424-.326.75-.75.75h-6.25a.738.738 0 0 1-.75-.75c0-.424.325-.75.75-.75h.015a.5.5 0 0 0 .49-.398.278.278 0 0 1 .448-.166.5.5 0 0 0 .804-.465.743.743 0 0 1 .742-.846.75.75 0 0 1 .42.131.5.5 0 0 0 .686-.12 1.53 1.53 0 0 1 1.238-.636z" overflow="visible" style="line-height:normal;text-indent:0;text-align:start;text-decoration-line:none;text-decoration-style:solid;text-decoration-color:#000;text-transform:none;block-progression:tb;isolation:auto;mix-blend-mode:normal" transform="translate(-139.268 -459.984)"></path><path fill="#34485c" fill-rule="evenodd" d="M145.143 474.984a.5.5 0 0 0-.5.5v16a.5.5 0 0 0 .5.5h6a.5.5 0 0 0 .5-.5v-16a.5.5 0 0 0-.5-.5h-6zm.5 1h5v15h-5v-15z" overflow="visible" style="line-height:normal;text-indent:0;text-align:start;text-decoration-line:none;text-decoration-style:solid;text-decoration-color:#000;text-transform:none;block-progression:tb;isolation:auto;mix-blend-mode:normal" transform="translate(-139.268 -459.984)"></path><path fill="#34485c" fill-rule="evenodd" d="M144.143 472.984a.5.5 0 0 0-.5.5v2a.5.5 0 0 0 .5.5h8a.5.5 0 0 0 .5-.5v-2a.5.5 0 0 0-.5-.5h-8zm.5 1h7v1h-7v-1z" overflow="visible" style="line-height:normal;text-indent:0;text-align:start;text-decoration-line:none;text-decoration-style:solid;text-decoration-color:#000;text-transform:none;block-progression:tb;isolation:auto;mix-blend-mode:normal" transform="translate(-139.268 -459.984)"></path><path fill="#f8b84e" fill-rule="evenodd" d="M160.643 467.984v3h1v-3h-1z" overflow="visible" style="line-height:normal;text-indent:0;text-align:start;text-decoration-line:none;text-decoration-style:solid;text-decoration-color:#000;text-transform:none;block-progression:tb;isolation:auto;mix-blend-mode:normal" transform="translate(-139.268 -459.984)"></path><path fill="#cad1d8" fill-rule="evenodd" d="M146.643 476.984v1h3v-1h-3zm0 2v1h3v-1h-3zm0 2v1h3v-1h-3zm0 2v1h3v-1h-3zm0 2v1h3v-1h-3zm0 2v1h3v-1h-3zm0 2v1h3v-1h-3z" overflow="visible" style="line-height:normal;text-indent:0;text-align:start;text-decoration-line:none;text-decoration-style:solid;text-decoration-color:#000;text-transform:none;block-progression:tb;isolation:auto;mix-blend-mode:normal" transform="translate(-139.268 -459.984)"></path><path fill="#4bbfeb" d="M167.82 461.057c-.445 0-.79.297-1.125.576-.158-.063-.309-.149-.48-.149-.553 0-.942.388-1.152.868-.01 0-.017-.01-.026-.01a.5.5 0 0 0-.002 0c-.254 0-.342.272-.525.43h-.01c-.744 0-1.358.612-1.358 1.355s.614 1.357 1.358 1.357h4.285c.743 0 1.357-.614 1.357-1.357 0-.34-.281-.533-.49-.772.03-.134.062-.268.063-.406a1.9 1.9 0 0 0-1.893-1.893.5.5 0 0 0-.002 0zm.002 1a.885.885 0 0 1 .854 1.152.5.5 0 0 0 .263.598.346.346 0 0 1 .204.32c0 .207-.151.357-.358.357H164.5a.346.346 0 0 1-.357-.357c0-.206.15-.356.357-.356h.012a.5.5 0 0 0 .49-.4c.004-.02.013-.03.033-.03.008 0 .015.004.022.009a.5.5 0 0 0 .804-.465.35.35 0 0 1 .353-.4c.072 0 .14.022.2.062a.5.5 0 0 0 .686-.121.892.892 0 0 1 .722-.37z" overflow="visible" style="line-height:normal;text-indent:0;text-align:start;text-decoration-line:none;text-decoration-style:solid;text-decoration-color:#000;text-transform:none;block-progression:tb;isolation:auto;mix-blend-mode:normal" transform="translate(-139.268 -459.984)"></path><path fill="#cad1d8" fill-rule="evenodd" d="M144.643 467.484v1h3v-1h-3zm-2 0v1h1v-1h-1zm-2 0v1h1v-1h-1zm13-4v1h1v-1h-1zm2 0v1h1v-1h-1zm2 0v1h1v-1h-1zm0-2v1h4v-1h-4zm5 0v1h1v-1h-1z" overflow="visible" style="line-height:normal;text-indent:0;text-align:start;text-decoration-line:none;text-decoration-style:solid;text-decoration-color:#000;text-transform:none;block-progression:tb;isolation:auto;mix-blend-mode:normal" transform="translate(-139.268 -459.984)"></path><path fill="#f8b84e" fill-rule="evenodd" d="M158.643 470.984v2.758h1v-1.758h3v1.758h1v-2.758h-5z" overflow="visible" style="line-height:normal;text-indent:0;text-align:start;text-decoration-line:none;text-decoration-style:solid;text-decoration-color:#000;text-transform:none;block-progression:tb;isolation:auto;mix-blend-mode:normal" transform="translate(-139.268 -459.984)"></path><path fill="#f8b84e" fill-rule="evenodd" d="M157.643 472.984v19h7v-19h-7zm1 1h5v17h-5v-17z" overflow="visible" style="line-height:normal;text-indent:0;text-align:start;text-decoration-line:none;text-decoration-style:solid;text-decoration-color:#000;text-transform:none;block-progression:tb;isolation:auto;mix-blend-mode:normal" transform="translate(-139.268 -459.984)"></path><path fill="#f17f53" fill-rule="evenodd" d="M159.643 474.984v1h1v-1h-1zm0 2v1h1v-1h-1zm0 2v1h1v-1h-1zm0 2v1h1v-1h-1zm0 2v1h1v-1h-1zm0 2v1h1v-1h-1zm0 2v1h1v-1h-1zm0 2v1h1v-1h-1zm2-14v1h1v-1h-1zm0 2v1h1v-1h-1zm0 2v1h1v-1h-1zm0 2v1h1v-1h-1zm0 2v1h1v-1h-1zm0 2v1h1v-1h-1zm0 2v1h1v-1h-1zm0 2v1h1v-1h-1z" overflow="visible" style="line-height:normal;text-indent:0;text-align:start;text-decoration-line:none;text-decoration-style:solid;text-decoration-color:#000;text-transform:none;block-progression:tb;isolation:auto;mix-blend-mode:normal" transform="translate(-139.268 -459.984)"></path><path fill="#25b39e" fill-rule="evenodd" d="M142.268 490.984v1h25v-1z" overflow="visible" style="line-height:normal;text-indent:0;text-align:start;text-decoration-line:none;text-decoration-style:solid;text-decoration-color:#000;text-transform:none;block-progression:tb;isolation:auto;mix-blend-mode:normal" transform="translate(-139.268 -459.984)"></path></g></svg>