<svg xmlns="http://www.w3.org/2000/svg" width="32" height="32" id="building"><g color="#000"><path fill="#f05542" d="M-214.5-.638a.5.5 0 0 0-.5.5v18a.5.5 0 0 0 .5.5h8a.5.5 0 1 0 0-1h-7.5v-17h7v1.25a.5.5 0 1 0 1 0v-1.75a.5.5 0 0 0-.5-.5h-8zm19 0a.5.5 0 0 0-.5.5v1.824a.5.5 0 1 0 1 0V.362h7v17h-7.5a.5.5 0 1 0 0 1h8a.5.5 0 0 0 .5-.5v-18a.5.5 0 0 0-.5-.5h-8z" font-family="sans-serif" font-weight="400" overflow="visible" style="line-height:normal;text-indent:0;text-align:start;text-decoration-line:none;text-decoration-style:solid;text-decoration-color:#000;text-transform:none;block-progression:tb;isolation:auto;mix-blend-mode:normal" transform="translate(217 6.638)"></path><path fill="#2b4255" d="M-193.508 4.358a.5.5 0 0 0-.492.506v12.498h-14V5.145a.5.5 0 1 0-1 0v12.717a.5.5 0 0 0 .5.5h15a.5.5 0 0 0 .5-.5V4.864a.5.5 0 0 0-.508-.506z" font-family="sans-serif" font-weight="400" overflow="visible" style="line-height:normal;text-indent:0;text-align:start;text-decoration-line:none;text-decoration-style:solid;text-decoration-color:#000;text-transform:none;block-progression:tb;isolation:auto;mix-blend-mode:normal" transform="translate(217 6.638)"></path><path fill="#f05542" d="M-215.5-2.638a.5.5 0 0 0-.5.5v2a.5.5 0 0 0 .5.5h10a.5.5 0 0 0 .5-.5v-2a.5.5 0 0 0-.5-.5h-10zm.5 1h9v1h-9v-1zm18.5-1a.5.5 0 0 0-.5.5v2a.5.5 0 0 0 .5.5h10a.5.5 0 0 0 .5-.5v-2a.5.5 0 0 0-.5-.5h-10zm.5 1h9v1h-9v-1z" font-family="sans-serif" font-weight="400" overflow="visible" style="line-height:normal;text-indent:0;text-align:start;text-decoration-line:none;text-decoration-style:solid;text-decoration-color:#000;text-transform:none;block-progression:tb;isolation:auto;mix-blend-mode:normal" transform="translate(217 6.638)"></path><path fill="#f05542" d="M-213 1.363h1v1h-1zm2 0h1v1h-1zm-2 2h1v1h-1zm2 0h1v1h-1zm-2 2h1v1h-1zm2 0h1v1h-1zm-2 2h1v1h-1zm2 0h1v1h-1zm-2 2h1v1h-1zm2 0h1v1h-1zm-2 2h1v1h-1zm2 0h1v1h-1zm-2 2h1v1h-1zm2 0h1v1h-1zm-2 2h1v1h-1zm2 0h1v1h-1zm19-14h1v1h-1zm2 0h1v1h-1zm-2 2h1v1h-1zm2 0h1v1h-1zm-2 2h1v1h-1zm2 0h1v1h-1zm-2 2h1v1h-1zm2 0h1v1h-1zm-2 2h1v1h-1zm2 0h1v1h-1zm-2 2h1v1h-1zm2 0h1v1h-1zm-2 2h1v1h-1zm2 0h1v1h-1zm-2 2h1v1h-1zm2 0h1v1h-1z" overflow="visible" style="isolation:auto;mix-blend-mode:normal" transform="translate(217 6.638)"></path><path fill="#2b4255" d="M-204.5 10.362a.5.5 0 0 0-.5.5v7a.5.5 0 0 0 .5.5h7a.5.5 0 0 0 .5-.5v-7a.5.5 0 0 0-.5-.5h-7zm.5 1h6v6h-6v-6z" font-family="sans-serif" font-weight="400" overflow="visible" style="line-height:normal;text-indent:0;text-align:start;text-decoration-line:none;text-decoration-style:solid;text-decoration-color:#000;text-transform:none;block-progression:tb;isolation:auto;mix-blend-mode:normal" transform="translate(217 6.638)"></path><path fill="#2b4255" fill-rule="evenodd" d="M-201.5 10.862v7h1v-7h-1z" font-family="sans-serif" font-weight="400" overflow="visible" style="line-height:normal;text-indent:0;text-align:start;text-decoration-line:none;text-decoration-style:solid;text-decoration-color:#000;text-transform:none;block-progression:tb;isolation:auto;mix-blend-mode:normal" transform="translate(217 6.638)"></path><path fill="#2b4255" d="M-210 1.362a.5.5 0 0 0-.5.5v3a.5.5 0 0 0 .5.5h17.5a.5.5 0 0 0 .5-.5v-3a.5.5 0 0 0-.5-.5H-210zm.5 1h16.5v2h-16.5v-2z" font-family="sans-serif" font-weight="400" overflow="visible" style="line-height:normal;text-indent:0;text-align:start;text-decoration-line:none;text-decoration-style:solid;text-decoration-color:#000;text-transform:none;block-progression:tb;isolation:auto;mix-blend-mode:normal" transform="translate(217 6.638)"></path><path fill="#2b4255" fill-rule="evenodd" d="M-216 17.362v1h30v-1h-30zm10 2v1h10v-1h-10zm-2 2v1h14v-1h-14z" font-family="sans-serif" font-weight="400" overflow="visible" style="line-height:normal;text-indent:0;text-align:start;text-decoration-line:none;text-decoration-style:solid;text-decoration-color:#000;text-transform:none;block-progression:tb;isolation:auto;mix-blend-mode:normal" transform="translate(217 6.638)"></path></g></svg>