<?xml version="1.0" standalone="no"?>
<!DOCTYPE svg PUBLIC "-//W3C//DTD SVG 20010904//EN"
 "http://www.w3.org/TR/2001/REC-SVG-20010904/DTD/svg10.dtd">
<svg version="1.0" xmlns="http://www.w3.org/2000/svg"
 width="96.000000pt" height="96.000000pt" viewBox="0 0 96.000000 96.000000"
 preserveAspectRatio="xMidYMid meet">

<g transform="translate(0.000000,96.000000) scale(0.100000,-0.100000)"
fill="#000000" stroke="none">
<path d="M198 858 c-9 -7 -22 -33 -28 -58 -7 -24 -21 -50 -31 -58 -23 -16 -25
-55 -4 -72 23 -19 23 -550 0 -550 -8 0 -15 -7 -15 -15 0 -13 47 -15 360 -15
313 0 360 2 360 15 0 8 -7 15 -15 15 -23 0 -23 531 0 550 21 17 19 56 -4 72
-10 8 -24 34 -31 58 -6 25 -19 51 -28 58 -12 9 -84 12 -282 12 -198 0 -270 -3
-282 -12z m42 -63 c0 -44 -1 -45 -31 -45 -24 0 -29 4 -25 18 3 9 8 29 12 45 4
17 13 27 25 27 16 0 19 -8 19 -45z m90 0 c0 -43 -1 -45 -30 -45 -29 0 -30 2
-30 45 0 43 1 45 30 45 29 0 30 -2 30 -45z m90 0 c0 -43 -1 -45 -30 -45 -29 0
-30 2 -30 45 0 43 1 45 30 45 29 0 30 -2 30 -45z m90 0 c0 -43 -1 -45 -30 -45
-29 0 -30 2 -30 45 0 43 1 45 30 45 29 0 30 -2 30 -45z m90 0 c0 -43 -1 -45
-30 -45 -29 0 -30 2 -30 45 0 43 1 45 30 45 29 0 30 -2 30 -45z m90 0 c0 -43
-1 -45 -30 -45 -29 0 -30 2 -30 45 0 43 1 45 30 45 29 0 30 -2 30 -45z m74 18
c4 -16 9 -36 12 -45 4 -14 -1 -18 -25 -18 -30 0 -31 1 -31 45 0 37 3 45 19 45
12 0 21 -10 25 -27z m46 -108 c0 -13 -43 -15 -330 -15 -287 0 -330 2 -330 15
0 13 43 15 330 15 287 0 330 -2 330 -15z m-30 -255 l0 -210 -50 0 c-38 0 -50
-4 -50 -15 0 -11 12 -15 50 -15 38 0 50 -4 50 -15 0 -12 -18 -15 -105 -15
l-105 0 0 60 c0 47 3 60 15 60 21 0 20 48 -2 72 -22 25 -183 27 -207 2 -21
-20 -21 -74 -1 -74 12 0 15 -13 15 -60 l0 -60 -105 0 c-87 0 -105 3 -105 15 0
11 12 15 50 15 38 0 50 4 50 15 0 11 -12 15 -50 15 l-50 0 0 210 0 210 300 0
300 0 0 -210z m-210 -105 c0 -12 -17 -15 -90 -15 -73 0 -90 3 -90 15 0 12 17
15 90 15 73 0 90 -3 90 -15z m-30 -135 l0 -90 -60 0 -60 0 0 90 0 90 60 0 60
0 0 -90z m-150 -75 c0 -12 -18 -15 -105 -15 -87 0 -105 3 -105 15 0 12 18 15
105 15 87 0 105 -3 105 -15z m390 0 c0 -12 -18 -15 -105 -15 -87 0 -105 3
-105 15 0 12 18 15 105 15 87 0 105 -3 105 -15z"/>
<path d="M282 588 c-16 -16 -16 -110 0 -126 7 -7 35 -12 63 -12 28 0 56 5 63
12 16 16 16 110 0 126 -16 16 -110 16 -126 0z m108 -33 c0 -11 -12 -15 -45
-15 -33 0 -45 4 -45 15 0 11 12 15 45 15 33 0 45 -4 45 -15z m0 -60 c0 -11
-12 -15 -45 -15 -33 0 -45 4 -45 15 0 11 12 15 45 15 33 0 45 -4 45 -15z"/>
<path d="M552 588 c-16 -16 -16 -110 0 -126 7 -7 35 -12 63 -12 28 0 56 5 63
12 16 16 16 110 0 126 -16 16 -110 16 -126 0z m108 -33 c0 -11 -12 -15 -45
-15 -33 0 -45 4 -45 15 0 11 12 15 45 15 33 0 45 -4 45 -15z m0 -60 c0 -11
-12 -15 -45 -15 -33 0 -45 4 -45 15 0 11 12 15 45 15 33 0 45 -4 45 -15z"/>
<path d="M480 210 c0 -20 5 -30 15 -30 10 0 15 10 15 30 0 20 -5 30 -15 30
-10 0 -15 -10 -15 -30z"/>
</g>
</svg>
